/* XPM */
static char *xct_info[] = {
/* columns rows colors chars-per-pixel */
"48 48 158 2 ",
"   c black",
".  c gray7",
"X  c gray20",
"o  c #3A3A3A",
"O  c #257625",
"+  c #434343",
"@  c #4D4D4D",
"#  c #535353",
"$  c #595959",
"%  c #5D7E5D",
"&  c #606060",
"*  c #6B6B6B",
"=  c #777777",
"-  c #7D7D7D",
";  c #065EB4",
":  c #085FB5",
">  c #0764BD",
",  c #1265B7",
"<  c #1167BA",
"1  c #126BBF",
"2  c #1F6FBD",
"3  c #2A75BF",
"4  c #377BBD",
"5  c #026DCD",
"6  c #0A6FCA",
"7  c #0670CE",
"8  c #1570C5",
"9  c #1A74C7",
"0  c #1274CD",
"q  c #1E78CB",
"w  c #006FD1",
"e  c #0272D5",
"r  c #0076DB",
"t  c #0278DD",
"y  c #0F7CDA",
"u  c #1479D3",
"i  c #1A7BD2",
"p  c #117EDC",
"a  c #2975C0",
"s  c #2478C6",
"d  c #367DC3",
"f  c #277FD0",
"g  c #007BE3",
"h  c #007FE9",
"j  c #4C86BF",
"k  c #1683DF",
"l  c #1981DB",
"z  c #3E80C1",
"x  c #3D86CA",
"c  c #2380D2",
"v  c #2982D3",
"b  c #2987DA",
"n  c #2788DD",
"m  c #2B8ADC",
"M  c #2183DA",
"N  c #378BD5",
"B  c #398AD4",
"V  c #398EDA",
"C  c #3991DC",
"Z  c #0081EC",
"A  c #0883EA",
"S  c #0F88ED",
"D  c #198AE8",
"F  c #248AE0",
"G  c #2191EE",
"H  c #2C97EF",
"J  c #3B95E0",
"K  c #3099F0",
"L  c #4285C7",
"P  c #4F8BC5",
"I  c #468CCF",
"U  c #488CCB",
"Y  c #5E91C4",
"T  c #448ED3",
"R  c #4490D4",
"E  c #4991D4",
"W  c #4394DA",
"Q  c #4996DB",
"!  c #4998DD",
"~  c #5296D5",
"^  c #539AD7",
"/  c #5999D6",
"(  c #529FDE",
")  c #599EDB",
"_  c #659ECE",
"`  c #689BCC",
"'  c #779FC7",
"]  c #659ED5",
"[  c #6EA1CB",
"{  c #7EA6CC",
"}  c #65A0D7",
"|  c #69A1D7",
" . c #64A3DC",
".. c #69A4DB",
"X. c #76A7D7",
"o. c #7AA9D1",
"O. c #74A9DC",
"+. c #7AACDC",
"@. c #469AE0",
"#. c #4C9BE1",
"$. c #509DE1",
"%. c #7DB6E9",
"&. c #848484",
"*. c #8C8C8C",
"=. c #939393",
"-. c #9C9C9C",
";. c #A5A5A5",
":. c #ACACAC",
">. c #AFB5BA",
",. c #B4B4B4",
"<. c #B1B6B9",
"1. c #BCBCBC",
"2. c #8AAAC4",
"3. c #81A5C9",
"4. c #84A9CD",
"5. c #97B0C4",
"6. c #9BB2C6",
"7. c #83AFD4",
"8. c #80ADDA",
"9. c #8FB4D6",
"0. c #8AB4DC",
"q. c #97B9D7",
"w. c #92BADF",
"e. c #BBBFC1",
"r. c #A5BBD1",
"t. c #ADBFD2",
"y. c #84B4E1",
"u. c #89B6E0",
"i. c #8BBDEA",
"p. c #89BAE7",
"a. c #90BAE2",
"s. c #99BEE2",
"d. c #BDC1C4",
"f. c #B3C4D5",
"g. c #9DC1E2",
"h. c #92C1EB",
"j. c #98C4EB",
"k. c #A3C4E4",
"l. c #BFD7EE",
"z. c #C3C4C4",
"x. c #CCCCCC",
"c. c #C5C9CD",
"v. c #CED3D8",
"b. c #D4D4D4",
"n. c #D8D8D7",
"m. c #D2D6DA",
"M. c #D6D9DB",
"N. c #DADADA",
"B. c #C7DBEF",
"V. c #C7DCF0",
"C. c #CEDFF1",
"Z. c #E4E4E4",
"A. c #E9E9E7",
"S. c #EBEBEA",
"D. c #F0F0EF",
"F. c #F4F4F4",
"G. c #FDFEFE",
"H. c None",
/* pixels */
"H.H.H.H.H.H.H.H.H.H.H.H.H.H.H.H.H.H.H.H.H.H.H.H.H.H.H.H.H.H.H.H.H.H.H.H.H.H.H.H.H.H.H.H.H.H.H.H.",
"H.H.H.H.H.H.H.H.H.H.H.H.H.H.H.H.H.H.H.H.H.H.H.H.H.H.H.H.H.H.H.H.H.H.H.H.H.H.H.H.H.H.H.H.H.H.H.H.",
"H.H.H.H.H.H.;.-.&.:.,.z.x.x.x.x.x.x.x.x.x.x.x.x.x.x.1.1.1.1.1.1.1.1.1.1.,.1.:.&.-.;.H.H.H.H.H.H.",
"H.H.H.H.H.H.,.*.z.1.1.Z.G.F.D.D.S.D.S.S.S.A.Z.A.S.S.z.z.z.z.z.x.z.1.1.1.1.1.1.=.*.,.H.H.H.H.H.H.",
"H.H.H.H.H.H.1.1.z.1.z.b.N.N.N.N.n.N.n.n.n.n.b.n.n.n.x.,.,.,.,.,.,.,.:.1.1.z.1.e.1.,.H.H.H.H.H.H.",
"H.H.H.H.H.* 1.z.z.:.:.,.,.1.1.e.1.z.z.z.z.x.x.z.1.x.x.*.x.x.x.x.z.x.1.=.z.z.z.z.1.z.* H.H.H.H.H.",
"H.H.H.H.H.&.z.z.,.&.x.x.x.b.x.x.b.x.x.b.b.x.b.b.n.x.x.-.x.b.x.b.x.x.z.*.x.x.x.z.z.z.&.H.H.H.H.H.",
"H.H.H.H.H.=.z.x.-.-.x.x.x.b.b.x.b.b.b.b.b.b.b.N.G.N.,.,.b.x.b.b.b.b.x.*.b.x.x.x.x.z.=.H.H.H.H.H.",
"H.H.H.H.H.;.x.x.=.;.b.x.b.b.b.b.b.b.b.M.b.b.S.G.D.b.;.n.n.b.b.b.b.b.x.*.x.x.x.x.x.x.;.H.H.H.H.H.",
"H.H.H.H.H.,.x.b.=.1.b.n.b.n.b.n.M.n.N.N.Z.G.G.Z.b.,.n.N.n.n.n.n.n.b.n.=.x.b.x.b.x.x.:.H.H.H.H.H.",
"H.H.H.H.H.1.x.v.-.z.n.b.M.n.N.N.N.n.Z.F.G.F.n.z.1.N.N.N.N.N.M.M.M.n.n.-.x.b.b.b.b.b.1.H.H.H.H.H.",
"H.H.H.H.H.z.n.b.-.x.n.M.N.N.N.N.S.G.G.F.N.x.x.M.N.N.N.N.N.N.N.N.N.N.n.;.x.M.n.b.b.b.x.H.H.H.H.H.",
"H.H.H.H.H.x.n.n.;.x.N.N.Z.A.F.G.G.D.b.x.x.m.r.3.' 3.r.n.N.N.N.N.N.N.N.:.x.n.N.N.n.b.x.H.H.H.H.H.",
"H.H.H.H.H.b.N.n.e.x.F.G.G.G.F.Z.x.b.N.t.j ; , a d a < : P f.N.N.Z.N.N.,.z.N.N.N.M.n.x.H.H.H.H.H.",
"H.H.H.H.H.b.N.n.N.N.F.D.N.N.x.n.N.M.Y : L 8.s.s.a.s.s.+.x 6 ` N.N.N.N.z.x.N.N.N.N.N.n.H.H.H.H.H.",
"H.H.H.H.H.n.n.b.N.N.N.N.x.x.N.N.m.4 2 X.0.0.+.k.C.k.+.y.0.O.q L N.N.N.c.x.N.N.N.x.M.n.H.H.H.H.H.",
"H.H.H.H.&.b.*.&.x.N.N.z.n.N.N.N.z a X.+.+.+.s.G.G.G.g.+.+.%.O.q U N.N.N.z.N.N.x.- *.b.&.H.H.H.H.",
"H.H.H.H.-.N.1.,.Z.N.1.n.N.N.N.{ 1 ] ] ] ..] B.G.G.G.V. ....... .0 9.N.N.n.e.N.Z.,.1.N.-.H.H.H.H.",
"H.H.H.H.:.N.N.Z.N.z.x.N.N.N.m.1 I / / / ) / a.G.G.G.a.) ) ) ) ( W 0 M.N.N.x.z.N.N.N.N.:.H.H.H.H.",
"H.H.H.H.1.N.N.N.x.,.N.N.N.M.4.8 E E E E E E T u.B.y.R Q Q Q Q ! Q u q.N.N.N.,.b.N.Z.N.,.H.H.H.H.",
"H.H.H.H.1.N.N.N.,.x.N.N.n.M.U f B B B B B B B V N V V V V V V V V M ~ N.N.N.x.,.N.Z.N.1.H.H.H.H.",
"H.H.H.H.z.N.N.N.-.N.M.M.n.n.8 8 f f f f b ~ y.y.y.y.f b m m m F F u m M.n.N.n.-.b.N.N.z.H.H.H.H.",
"H.H.H.H.x.N.N.z.;.n.n.n.n.n.6 5 6 0 i i i a.G.G.G.G.i p i l p p r r p M.n.n.M.;.z.N.N.x.H.H.H.H.",
"H.H.H.H.x.N.N.1.:.n.M.b.b.b.5 5 w w w w e 7 6 G.G.G.7 y g t t t r r D b.b.n.M.:.1.N.N.x.H.H.H.H.",
"H.H.H.H.b.N.n.,.,.n.b.b.b.b.i e w w e w e r e G.G.G.e r r g r g g g n b.b.n.n.,.<.n.N.x.H.H.H.H.",
"H.H.H.H.b.n.n.z.:.n.b.b.b.x.R e r e r r r r 7 G.G.G.e g g g g g g h ( b.b.b.n.:.e.N.N.b.H.H.H.H.",
"H.H.H.H.n.n.n.x.:.x.b.b.x.x.0.e r r r r r t e G.G.G.r g h h g h h h 9.b.x.b.b.:.b.n.n.n.H.H.H.H.",
"H.H.H.*.n.b.n.b.1.z.x.x.x.x.c.y r r g r g g t G.G.G.r h h h h h Z D x.x.b.x.c.,.b.b.n.N.*.H.H.H.",
"H.H.H.-.m.b.b.b.x.z.x.x.x.x.x.o.g g g g h r e G.G.G.r g h Z Z Z h 8.x.x.x.x.z.x.b.b.n.n.-.H.H.H.",
"H.H.H.:.b.b.b.x.b.x.b.x.x.z.x.c.V g g g h i.G.G.G.G.G.%.Z Z Z Z @.z.x.x.x.b.x.b.b.b.b.b.;.H.H.H.",
"H.H.H.,.b.b.x.b.x.x.N.N.x.z.z.z.d.m h h S $.i.h.j.h.i.#.S Z Z J d.x.x.x.Z.M.x.x.x.b.b.b.,.H.H.H.",
"H.H.H.,.b.b.x.x.x.x.x.Z.A.b.z.z.z.e.) Z Z S G H K H G S Z Z ) d.z.x.x.S.Z.x.x.x.b.x.b.b.1.H.H.H.",
"H.H.H.e.b.x.x.x.x.x.z.x.Z.G.Z.z.1.1.1.6.W Z Z Z Z Z Z A W 6.1.1.z.Z.G.Z.x.z.x.x.x.x.b.b.1.H.H.H.",
"H.H.H.z.b.x.x.x.x.z.x.z.z.n.F.G.Z.x.1.,.,.<.2.` _ [ 2.>.1.,.x.Z.G.G.N.z.x.z.x.x.x.x.x.b.z.H.H.H.",
"H.H.H.x.b.x.x.x.c.z.z.z.1.1.1.N.F.G.G.S.N.b.x.z.1.x.b.n.S.G.G.F.n.z.z.z.z.z.x.x.x.x.b.b.x.H.H.H.",
"H.H.H.x.1.*.;.z.x.z.1.z.1.1.1.1.,.z.n.Z.F.G.G.G.G.G.G.F.A.N.z.,.1.1.1.1.z.z.z.z.x.;.*.1.x.H.H.H.",
"H.H.H.x.:.x.=.x.z.x.1.1.1.1.,.,.,.:.,.,.:.,.,.,.1.,.,.:.,.,.,.,.,.1.1.1.1.z.z.x.x.*.1.:.x.H.H.H.",
"H.H.H.x.x.,.x.z.z.z.1.1.1.1.,.,.,.,.:.:.:.:.:.:.:.:.:.:.:.:.,.,.,.,.1.1.1.z.z.z.x.x.1.b.x.H.H.H.",
"H.H.$ 1.1.1.1.1.,.,.,.,.,.,.,.,.,.:.:.:.:.:.:.:.:.:.:.:.:.:.,.:.,.,.,.,.,.,.1.1.1.1.1.1.1.$ H.H.",
"H.H.X @ $ $ $ $ * o $ $ $ $ $ $ $ $ $ $ # $ * # $ * # $ $ $ $ $ $ # $ $ $ $ $ $ # # # $ @ X H.H.",
"H.H.X @ @ # @ @ * . @ @ @ @ @ @ @ @ @ @ o # * o # * o @ @ @ # @ @ @ @ @ @ # @ @ @ # @ @ @ o H.H.",
"H.H.# = - - - - &.. & & & & & & & & & & + $ = + $ = + - - - - - - - - &.- - - O O - - - = # H.H.",
"H.H.@ * = = = = -   . X @ & * = = = = = + $ = + $ = + = = = = = = = = = = = = % % = = = * # H.H.",
"H.H.H.@ $ $ $ $ $ o o + + + @ @ @ # # $ @ # & # # & # $ $ $ $ $ $ $ $ # $ $ $ $ $ $ $ $ @ H.H.H.",
"H.H.H.H.H.H.H.H.H.H.H.H.H.H.H.H.H.H.H.H.H.H.H.H.H.H.H.H.H.H.H.H.H.H.H.H.H.H.H.H.H.H.H.H.H.H.H.H.",
"H.H.H.H.H.H.H.H.H.H.H.H.H.H.H.H.H.H.H.H.H.H.H.H.H.H.H.H.H.H.H.H.H.H.H.H.H.H.H.H.H.H.H.H.H.H.H.H.",
"H.H.H.H.H.H.H.H.H.H.H.H.H.H.H.H.H.H.H.H.H.H.H.H.H.H.H.H.H.H.H.H.H.H.H.H.H.H.H.H.H.H.H.H.H.H.H.H.",
"H.H.H.H.H.H.H.H.H.H.H.H.H.H.H.H.H.H.H.H.H.H.H.H.H.H.H.H.H.H.H.H.H.H.H.H.H.H.H.H.H.H.H.H.H.H.H.H."
};
