/* XPM */
static char *acd_about[] = {
/* columns rows colors chars-per-pixel */
"48 48 147 2 ",
"   c #040404",
".  c #0B0B0B",
"X  c #151515",
"o  c #171818",
"O  c #1B1C1B",
"+  c #1E2223",
"@  c #252525",
"#  c #222628",
"$  c #252A2B",
"%  c #2A2A2A",
"&  c #292E31",
"*  c #2E3436",
"=  c #343634",
"-  c #393A37",
";  c #313739",
":  c #343A3C",
">  c #3B3C3B",
",  c #3E403D",
"<  c #40423F",
"1  c #655D2A",
"2  c #3A3F40",
"3  c #3D4345",
"4  c #424443",
"5  c #474846",
"6  c #484A47",
"7  c #434749",
"8  c #444A4B",
"9  c #4C4D4C",
"0  c #4F504E",
"q  c #52524F",
"w  c #4C4F50",
"e  c #4C5253",
"r  c #4E585B",
"t  c #545653",
"y  c #565855",
"u  c #595B57",
"i  c #545758",
"p  c #54595A",
"a  c #5C5D5B",
"s  c #5D615D",
"d  c #60625F",
"f  c #555F61",
"g  c #5D6161",
"h  c #5D666A",
"j  c #5D686B",
"k  c #636563",
"l  c #676964",
"z  c #686A66",
"x  c #646768",
"c  c #656A6B",
"v  c #6C6D6B",
"b  c #6F716D",
"n  c #71736F",
"m  c #626D71",
"M  c #6C7577",
"N  c #677378",
"B  c #737573",
"V  c #767875",
"C  c #797B77",
"Z  c #757A7C",
"A  c #7B7D7A",
"S  c #7F817D",
"D  c #EBD73F",
"F  c #81837F",
"G  c #DFD55A",
"H  c #ECD842",
"J  c #EEDC5D",
"K  c #F1DE5C",
"L  c #F7E64F",
"P  c #F9E64E",
"I  c #E2D966",
"U  c #FBEB69",
"Y  c #6F7C80",
"T  c #758187",
"R  c #7F8080",
"E  c #768388",
"W  c #7B868A",
"Q  c #7F8B90",
"!  c #7297C2",
"~  c #7299C5",
"^  c #749ACB",
"/  c #7A9ECC",
"(  c #7DA1CB",
")  c #838582",
"_  c #878885",
"`  c #888A85",
"'  c #8C8D8A",
"]  c #8F908C",
"[  c #90938E",
"{  c #818F95",
"}  c #8C9092",
"|  c #859195",
" . c #949594",
".. c #979A95",
"X. c #999B97",
"o. c #949B9F",
"O. c #9B9D9B",
"+. c #9EA19D",
"@. c #A1A29E",
"#. c #9BA0A0",
"$. c #93A8A9",
"%. c #A4A5A4",
"&. c #A7ABA7",
"*. c #A8A9A6",
"=. c #ACADAB",
"-. c #A6ABAC",
";. c #AFB1AD",
":. c #B0B1AF",
">. c #AFB4B6",
",. c #A1B3B5",
"<. c #B4B4B3",
"1. c #BDBEBC",
"2. c #B1B9BC",
"3. c #BEC0BD",
"4. c #8CAACD",
"5. c #84A4CC",
"6. c #93AFCF",
"7. c #96B1CF",
"8. c #92AFD1",
"9. c #98B5D2",
"0. c #A2BBD6",
"q. c #A7C0D7",
"w. c #AAC0D2",
"e. c #ADC3DB",
"r. c #B4C7DD",
"t. c #B5C9DF",
"y. c #B0C3D4",
"u. c #B7CBE0",
"i. c #BBCEE2",
"p. c #C3C3C3",
"a. c #C8C8C7",
"s. c #CACACA",
"d. c #D2D2D2",
"f. c #DADADA",
"g. c #C1D2E4",
"h. c #CAD9E8",
"j. c #D1DEEC",
"k. c #D3E1EE",
"l. c #D9E3EE",
"z. c #E3E3E3",
"x. c #ECECEC",
"c. c #E6EDF4",
"v. c #EBF0F6",
"b. c #E8F0F8",
"n. c #F4F4F4",
"m. c white",
"M. c None",
/* pixels */
"M.M.M.M.M.M.M.M.M.M.M.M.M.M.M.M.M.M.M.M.M.M.M.M.M.M.M.M.M.M.M.M.M.M.M.M.M.M.M.M.M.M.M.M.M.M.M.M.",
"M.M.M.M.M.M.M.^ / M.M.M.M.M.M.M.M.M.M.M.M.M.M.M.M.M.M.M.M.M.M.M.M.M.M.M.M.M.M.M.M.M.M.M.M.M.M.M.",
"M.M.M.M.M.^ 4.0.q.7.( M.M.M.M.M.M.M.M.M.M.M.M.M.M.M.M.M.M.M.M.M.M.M.M.M.M.M.M.M.M.M.M.M.M.M.M.M.",
"M.M.M.M.M.4.g.c.b.l.7.~ M.M.M.M.M.M.M.M.M.M.M.M.M.M.M.M.M.M.M.M.M.M.M.M.M.M.M.M.M.M.M.M.M.M.M.M.",
"M.M.M.M./ e.j.v.v.c.9.5.M.M.M.M.M.M.M.M.M.M.M.M.M.*.%.%.*.*.%.%.*.M.M.M.M.M.M.M.M.M.M.M.M.M.M.M.",
"M.M.M.M.( h.4.r.i.7.0.8.M.M.M.M.M.M.M.M.M.M.M.M.=.z.n.n.n.n.n.n.x.=.M.M.M.M.M.M.M.M.M.M.M.M.M.M.",
"M.M.M.M.~ 0.6.h.k.9.r.( M.M.M.M.M.M.M.M.M.M.M.M.1.m.m.m.m.m.m.m.m.a.M.M.M.M.M.M.M.M.M.M.M.M.M.M.",
"M.M.M.M.M.8.u.j.b.e.r.M.M.M.M.M.M.M.M.M.M.M.M.M.s.z.z.z.z.z.z.z.z.s.] M.M.M.M.M.M.M.M.M.M.M.M.M.",
"M.M.M.M.M.! u.h.k.g.4.M.M.M.M.M.M.M.M.M.M.M.M.M.a.d.d.d.d.d.d.d.d.d.v M.M.M.M.M.M.M.M.M.M.M.M.M.",
"M.M.M.M.M.M.$.w.w.,.M.M.M.M.M.M.M.M.M.M.M.M.M.q x <.s.s.a.a.a.a.p.F q M.M.M.M.M.M.M.M.M.M.M.M.M.",
"M.M.M.M.M.M.K I J H M.M.M.M.M.M.M.M.M.M.M.M.M.4 4 < < < < < < < < < < M.M.M.M.M.M.M.M.M.M.M.M.M.",
"M.M.M.M.M.M.J U L H M.M.M.M.M.M.M.M.M.M.M.M.M.% % & M.M.M.M.M.M.M.% & M.M.M.M.M.M.M.M.M.M.M.M.M.",
"M.M.M.M.M.M.K U L D M.M.M.M.M.M.M.M.M.M.M.M.M.O O O M.M.M.M.M.M.M.O O O M.M.M.M.M.M.M.M.M.M.M.M.",
"M.M.M.M.M.M.M.1 1 M.M.M.M.M.M.M.M.M.M.M.M.M.M.X X @ % % % % % % % O X X M.M.M.M.M.M.M.M.M.M.M.M.",
"M.M.M.M.M.M.M.M.M.M.M.M.M.M.M.M.M.M.M.M.M.M.O = ] X.O.+.+.@.+.+.+.X.= X M.M.M.M.M.M.M.M.M.M.M.M.",
"M.M.M.M.M.M.M.M.M.M.M.M.M.M.M.M.M.M.M.M.M.= B *.a t u a d k l l l v _ > @ M.M.M.M.M.M.M.M.M.M.M.",
"M.M.M.M.M.M.M.M.M.M.M.M.M.M.% % % % % < y %...n q y u s d d z z z l z C t % % % & M.M.M.M.M.M.M.",
"M.M.M.M.M.M.M.% % % = q b S ] +.*.<.@.O. .) A b k l z b b n V n n V n s ` ` ` ` V q % M.M.M.M.M.",
"M.M.M.M.% % u S +.;.<.;.%.+.+.[ ] d d k k t n O.&.&.&.&.&.&.&.&.&.&.-.] b n b b C ` ` 6 % M.M.M.",
"M.M.% = ` <.;.@...] ` ` ` ` ` F ) 9 n.m.m.d d O.V V C A S F F F F F F X.n l l l v v n [ % M.M.M.",
"M.M.> :.@.[ ` ` _ ` ` ` ` ` +.+.B 9 x.n.n.d R v q t u s d k l l l l l b  .z z B z z B ] % M.M.M.",
"M.% n *.` ` ` ` _ ` ` ` ` ` =.= = 9 s.d.d.a ) q t s j c j s r e r p l l F V z z y y d ] % M.M.M.",
"M.% a ;._ ` ` ` ` ` ` ` ` +.n = = 9 y u a q a t M T Y N m j s r 8 3 3 t z ' l l k d l ] % M.M.M.",
"M.% y ' ;.+.` _ ` ` _ ` &.` = = = - , < 5 A i E { | o.#.} S M Z V h 7 ; 5 v A z l l l ' % M.M.M.",
"M.% y A u _ =.p.3.3.3.+.d , = = = - > , v a Y { 2.-.v 3 * ; ; * 2 e v x 2 2 V z l l l ' % M.M.M.",
"M.@ y A y t y y s y 6 < , - = = = - , 4 z N Y >.c : e x B B B B x q : 8 M 3 9 v l l l ' % M.M.M.",
"M.% t A t t t t t 0 6 < , , = = = - > t f Y o.4 0 b g 7 ; * * : 7 f b 3 ; c 2 f l l l ` % M.M.M.",
"M.% t A t u t t t 0 6 4 , - = = - - > w x } 2 i c 3 * # O o O # & * 7 w * ; x 4 l l x _ % M.M.M.",
"M.% q C t q u t t 0 6 4 < - = = = - , 9 Y 4 ; i : $ . . .   . X @ % = * * * : p s z l _ @ M.M.M.",
"M.@ q S t u t t q 0 6 < > - = = = - > i f * = * + .           . . o = = * * * 0 s z l _ % M.M.M.",
"M.% 0 S y t t t q 0 6 < < - = = - - , x ; * * & .   - g k 5 O o o X O 4 * * * ; g @.n F % M.M.M.",
"M.% 6 S t y t y q q 6 < < - = = = - , f ; * * o   = p.d.b A g % % % + ; 4 * * * e V X.F % M.M.M.",
"M.@ 9 A t y t t t 9 < < < , = = - - > 9 * * & X   0 } O.<.z.d.v 4 = % % q ; * * 3 a %.R @ M.M.M.",
"M.% 9 A y t y t q 0 0 < < , = = = - > 7 * * $ X   t b @.z.z.f.R Z 4 > % i : * * > v O.R @ M.M.M.",
"M.% 6 A t y t u t 9 < < , = = = = - > : * * $ X   - B p.z.x.1.} ' i 5 = i 7 * * * O.Z R = M.M.M.",
"M.% 5 A t t t t q 0 0 < , , = = - - , > * * * o   X 9 :.f.1. . . .a 9 > a 4 * * ; B x R % M.M.M.",
"M.@ 5 C t t t t q 0 0 < , = = = = - > 3 * * * % . o @ 4 R '  .%.} a q > B : * * > l z A % M.M.M.",
"M.@ 5 A t t t t t 0 9 < , , < d l l v i * * * : . o @ = q R ' _ v a 9 q v * * * 9 A A u % M.M.M.",
"M.@ = F k t t t q 0 < < < 6 d , % % % = * * * > = X O = , 9 i a a d.9 B w * * * = = = % M.M.M.M.",
"M.M.% 5 V A n l s u s s d u = @ M.M.M.M.; ; * * 7 = O % = 4 9 9 q 5 v x * * * ; . M.M.M.M.M.M.M.",
"M.M.M.@ % > t k d d s 9 = % @ M.M.M.M.M.+ * * * ; q 9 & % = > > w V c ; * * = @ M.M.M.M.M.M.M.M.",
"M.M.M.M.M.+ @ @ % % @ % + M.M.M.M.M.M.M.M.& * * * * 5 k z g v A B w ; * * * & M.M.M.M.M.M.M.M.M.",
"M.M.M.M.M.M.M.M.M.M.M.M.M.M.M.M.M.M.M.M.M.M.* * * * & ; 2 7 7 : ; * * * * & M.M.M.M.M.M.M.M.M.M.",
"M.M.M.M.M.M.M.M.M.M.M.M.M.M.M.M.M.M.M.M.M.M.M.& * * ; * * ; * * * * * * & M.M.M.M.M.M.M.M.M.M.M.",
"M.M.M.M.M.M.M.M.M.M.M.M.M.M.M.M.M.M.M.M.M.M.M.M.M.* ; * * * * * * * * M.M.M.M.M.M.M.M.M.M.M.M.M.",
"M.M.M.M.M.M.M.M.M.M.M.M.M.M.M.M.M.M.M.M.M.M.M.M.M.M.M.M.* * * * M.M.M.M.M.M.M.M.M.M.M.M.M.M.M.M.",
"M.M.M.M.M.M.M.M.M.M.M.M.M.M.M.M.M.M.M.M.M.M.M.M.M.M.M.M.M.M.M.M.M.M.M.M.M.M.M.M.M.M.M.M.M.M.M.M.",
"M.M.M.M.M.M.M.M.M.M.M.M.M.M.M.M.M.M.M.M.M.M.M.M.M.M.M.M.M.M.M.M.M.M.M.M.M.M.M.M.M.M.M.M.M.M.M.M."
};
