/* XPM */
static char *format_ssd[] = {
/* columns rows colors chars-per-pixel */
"48 47 111 2 ",
"   c #010101",
".  c gray11",
"X  c #231D17",
"o  c #262016",
"O  c #2C2516",
"+  c #342B15",
"@  c #3C3314",
"#  c #202020",
"$  c #3C3C3C",
"%  c #433913",
"&  c #4B3F12",
"*  c #325E32",
"=  c #2E602E",
"-  c #4D4012",
";  c #534611",
":  c #5D4E10",
">  c #6C5A0F",
",  c #715F0E",
"<  c #625310",
"1  c #75620E",
"2  c #79650E",
"3  c #7E6B0D",
"4  c #444444",
"5  c #4A4A4A",
"6  c #545454",
"7  c #5B5B5B",
"8  c #547A54",
"9  c #626262",
"0  c #6A6A6A",
"q  c #757575",
"w  c #7C7C7C",
"e  c #846F0C",
"r  c #8A730D",
"t  c #8F790D",
"y  c #937B0B",
"u  c #8E7914",
"i  c #9D840B",
"p  c #978014",
"a  c #A48A09",
"s  c #AA8F08",
"d  c #AF9408",
"f  c #BE9F06",
"g  c #B19508",
"h  c #A58D15",
"j  c #AD9418",
"k  c #B2981A",
"l  c #B99E1B",
"z  c #BBA223",
"x  c #BCA637",
"c  c #C5A605",
"v  c #CBAB05",
"b  c #D4B204",
"n  c #D9B603",
"m  c #DCB903",
"M  c #C3A71F",
"N  c #E2BD03",
"B  c #C2AA2F",
"V  c #CCB025",
"C  c #D5BA2B",
"Z  c #E7C202",
"A  c #EDC701",
"S  c #EFC901",
"D  c #F3CC01",
"F  c #F9D100",
"G  c #C9B340",
"H  c #DBC347",
"J  c #DEC857",
"K  c #D2C062",
"L  c #D7C668",
"P  c #D5C572",
"I  c #DBCB74",
"U  c #D1C47E",
"Y  c #DBCB7B",
"T  c #E1CD69",
"R  c #E2D27C",
"E  c #828282",
"W  c gray56",
"Q  c #949494",
"!  c #9A9A9A",
"~  c #A4A4A4",
"^  c #ABABAB",
"/  c #B4B4B4",
"(  c #BCBCBC",
")  c #D4C781",
"_  c #D6C881",
"`  c #E5D687",
"'  c #E4D68D",
"]  c #E5D896",
"[  c #E2D79D",
"{  c #D2CBA6",
"}  c #C7C4B2",
"|  c #D2CDB1",
" . c #D2CFBC",
".. c #E2D9AB",
"X. c #E1DBBD",
"o. c #C3C3C3",
"O. c #CECCC2",
"+. c #CCCCCC",
"@. c #D4D2CA",
"#. c #DEDBCD",
"$. c #D4D4D4",
"%. c #D8D7D3",
"&. c #D9D8D7",
"*. c #DADADA",
"=. c #E0DBC0",
"-. c #E5E5E5",
";. c #E9E9E7",
":. c #ECECEB",
">. c #F3F3F3",
",. c #FCFCFC",
"<. c None",
/* pixels */
"<.<.<.<.<.<.<.<.<.<.<.<.<.<.<.<.<.<.<.<.<.<.<.<.<.<.<.<.<.<.<.<.<.<.<.<.<.<.<.<.<.<.<.<.<.<.<.<.",
"<.<.<.<.<.<.<.<.<.<.<.<.<.<.<.<.<.<.<.<.<.<.<.<.<.<.<.<.<.<.<.<.<.<.<.<.<.<.<.<.<.<.<.<.<.<.<.<.",
"<.<.<.<.<.<.<.<.<.<.<.<.<.<.<.<.<.<.<.<.<.<.<.<.<.<.<.<.<.<.<.<.<.<.<.<.<.<.<.<.<.<.<.<.<.<.<.<.",
"<.<.<.<.<.<.<.~ ! w / ( *.*.*.*.*.*.&.&.&.&.$.&.&.$.o.o.o.o.o.o.o.( o.( ( / w ! ~ <.<.<.<.<.<.<.",
"<.<.<.<.<.<.<.^ ^ ~ ( ( >.,.>.:.:.:.:.;.;.-.-.-.;.-.o.+.o.o.o.o.( o.( ( o.( ! ^ ^ <.<.<.<.<.<.<.",
"<.<.<.<.<.<.<./ o.( o.( o.+.+.+.+.+.+.+.+.+.+.+.+.+.+.! ( / / ( / / ~ o.o.( ( ( / <.<.<.<.<.<.<.",
"<.<.<.<.<.<.<.( ( o.Q / ( o.o.o.+.+.+.+.+.+.+.+.o.+.o.~ +.+.+.+.+.+.Q o.o.o.o.( ( <.<.<.<.<.<.<.",
"<.<.<.<.<.<.<.o.+.~ Q +.+.+.+.+.+.+.+.$.$.$.$.$.;.$./ / $.$.+.$.+.$.! ( +.+.o.o.o.<.<.<.<.<.<.<.",
"<.<.<.<.<.<.E +.+.! ~ +.$.$.$.$.$.$.$.$.$.&.*.>.,.$.^ +.$.$.$.$.$.$.! ( $.+.+.+.+.E <.<.<.<.<.<.",
"<.<.<.<.<.<.! +.+.Q / $.$.$.$.$.$.$.&.$.*.-.,.>.*./ +.&.&.&.&.$.$.$.~ ( $.$.+.+.+.! <.<.<.<.<.<.",
"<.<.<.<.<.<.^ +.$.! o.&.$.$.*.*.*.*.&.-.,.,.-.$.( $.&.&.*.*.*.$.*.*.^ ( $.$.$.$.+.~ <.<.<.<.<.<.",
"<.<.<.<.<.<./ $.$.! +.&.*.&.*.*.*.:.,.,.>.$.+.$.&.*.*.*.*.*.*.*.*.*.^ ( $.$.$.$.$.^ <.<.<.<.<.<.",
"<.<.<.<.<.<.( &.&.~ $.*.*.*.;.>.,.,.:.+.+.$.*.#.=.*.*.*.*.*.*.*.*.*.( ( *.&.&.$.&.( <.<.<.<.<.<.",
"<.<.<.<.<.<.+.&.*./ +.>.,.,.,.>.*.$.$.*.*.-.*.C y #.*.*.*.*.*.*.*.*.o.( *.*.*.&.&.o.<.<.<.<.<.<.",
"<.<.<.<.<.<.+.&.*.&.*.>.:.*.$.+.&.-.*.*.*.*.] > X G *.-.*.-.-.*.*.-.+.( *.*.*.*.&.+.<.<.<.<.<.<.",
"<.<.<.<.<.<.$.&.+.*.*.*.*.+.&.*.*.*.*.*.*.&.V X - < ..*.*.*.*.*.*.*.$.+.*.*.*.+.&.$.<.<.<.<.<.<.",
"<.<.<.<.<.<.&.Q Q +.*.*.o.*.*.*.*.*.*.*.&.' : , n X B &.*.*.*.*.*.*.*.o.$.*.+.E W $.<.<.<.<.<.<.",
"<.<.<.<.<.<.*.*.+.*.*.( *.*.*.*.*.*.*.*.$.V X m F 1 ; [ *.*.*.*.*.*.*.-.( *.-.+.$.*.<.<.<.<.<.<.",
"<.<.<.<.<.<.*.*.*.*./ *.*.*.*.*.*.*.*.*.` ; 2 F F N X z &.*.*.*.*.*.*.*.*./ -.*.*.*.<.<.<.<.<.<.",
"<.<.<.<.<.! *.*.*.+.( *.*.*.*.*.&.&.&.$.l X N S Z F e & ' &.&.&.$.*.*.*.*.( o.*.*.*.! <.<.<.<.<.",
"<.<.<.<.<.^ &.*.*.~ $.*.*.$.*.$.$.*.$.R - e N m A b m O k %.&.$.*.$.*.*.&.$.^ *.*.*.~ <.<.<.<.<.",
"<.<.<.<.<./ *.*.$.~ *.$.*.&.$.&.$.$.$.j O Z m D D F b r % Y $.&.$.*.$.*.*.*.! +.*.*./ <.<.<.<.<.",
"<.<.<.<.<.( *.*.o.^ *.$.&.$.$.$.$.$.I % t A b D F N c A + h @.$.$.$.$.*.&.&.^ o.*.*.( <.<.<.<.<.",
"<.<.<.<.<.o.*.*./ ^ *.$.$.$.+.$.$.+.h O A F v @ c : v F y @ T $.$.$.$.$.$.&./ / *.*.o.<.<.<.<.<.",
"<.<.<.<.<.o.&.&.o.^ &.&.$.+.$.$.+.I @ i S N v m 1 n b n D + a  .$.$.$.$.$.$./ o.&.*.o.<.<.<.<.<.",
"<.<.<.<.<.+.*.&.+.^ $.+.+.$.+.+.O.p + D Z b g a d y c n F i + J +.+.+.$.$.$.^ +.&.&.+.<.<.<.<.<.",
"<.<.<.<.<.+.&.$.$./ +.$.+.+.+.+.L + a F F m c c c f n Z F D @ y | +.+.$.+.+./ $.&.&.+.<.<.<.<.<.",
"<.<.<.<.<.$.$.$.+.+.o.+.+.+.+.O.u % D F F n A A m D m Z F F s O H +.+.+.+.+.+.+.$.&.$.<.<.<.<.<.",
"<.<.<.<.<.$.$.$.+.+.+.$.+.+.+.K O : y y y y y y y y y y y y y o r { +.+.&.+.+.$.$.$.$.<.<.<.<.<.",
"<.<.<.<.E $.$.+.+.+.+.*.*.+.o.x & & & & & & & & & & & & - - & & , Y +.*.*.+.+.$.$.$.$.E <.<.<.<.",
"<.<.<.<.! +.$.+.+.+.+.+.-.:.+.} ) U ) U ) U U U P P P P P P I P _ +.-.-.+.+.+.+.+.$.$.Q <.<.<.<.",
"<.<.<.<.~ $.$.+.+.+.+.o.+.;.,.-.o.( ( ( / ( / ( / ( / ( ( ( ( +.-.,.-.+.+.+.+.+.$.+.$.~ <.<.<.<.",
"<.<.<.<.^ +.+.+.+.+.o.o.o.o.+.>.,.;.$.( / / / / / / / ( o.+.:.,.>.+.o.o.+.+.+.+.+.+.$.^ <.<.<.<.",
"<.<.<.<./ +.+.+.+.+.o.o.o.o.( ( +.-.,.,.,.:.-.*.-.-.:.>.,.,.-.+.( o.o.o.o.o.o.+.+.+.+./ <.<.<.<.",
"<.<.<.<.( o.W Q o.o.o.o.o.( ( / / / / ( +.*.-.-.-.-.*.+.o./ / / ( ( ( o.o.o.+.o.Q W o./ <.<.<.<.",
"<.<.<.<.o.+.! ~ +.o.o.( ( / ( / / / / ^ ^ ^ ^ ^ ^ ^ / ^ ^ / / / / / ( ( o.o.o.+.^ ^ +.o.<.<.<.<.",
"<.<.<.<./ o.o.o.( / / / / ^ ^ ^ ~ ^ ~ ~ ~ ~ ~ ~ ! ~ ~ ~ ^ ~ ^ ^ ^ ^ / / / / ( ( o.o.o./ <.<.<.<.",
"<.<.<.<.6 q q q q E 0 q q q q w w q q w q q w q w E w q q q w q q w q q q q q q q q q 6 <.<.<.<.",
"<.<.<.<.4 5 5 4 5 9 . 5 5 4 5 5 5 5 5 5 7 4 9 $ 6 0 $ 4 5 4 5 4 5 5 5 4 5 5 5 5 5 5 5 4 <.<.<.<.",
"<.<.<.<.0 q q q q w # 7 9 9 7 9 9 7 7 7 0 5 0 4 7 q 5 q q q q q q q q q q q = * q q q 0 <.<.<.<.",
"<.<.<.<.7 q q q q w   . 4 7 0 q q q q q 0 6 0 4 7 q 5 q q q q q q q q q q q 8 8 q q q 9 <.<.<.<.",
"<.<.<.<.5 7 7 7 7 9 $ $ 4 4 4 4 5 6 6 7 7 6 7 6 7 7 6 7 7 7 7 7 6 7 7 7 7 7 7 7 6 7 7 5 <.<.<.<.",
"<.<.<.<.<.<.<.<.<.<.<.<.<.<.<.<.<.<.<.<.<.<.<.<.<.<.<.<.<.<.<.<.<.<.<.<.<.<.<.<.<.<.<.<.<.<.<.<.",
"<.<.<.<.<.<.<.<.<.<.<.<.<.<.<.<.<.<.<.<.<.<.<.<.<.<.<.<.<.<.<.<.<.<.<.<.<.<.<.<.<.<.<.<.<.<.<.<.",
"<.<.<.<.<.<.<.<.<.<.<.<.<.<.<.<.<.<.<.<.<.<.<.<.<.<.<.<.<.<.<.<.<.<.<.<.<.<.<.<.<.<.<.<.<.<.<.<.",
"<.<.<.<.<.<.<.<.<.<.<.<.<.<.<.<.<.<.<.<.<.<.<.<.<.<.<.<.<.<.<.<.<.<.<.<.<.<.<.<.<.<.<.<.<.<.<.<.",
"<.<.<.<.<.<.<.<.<.<.<.<.<.<.<.<.<.<.<.<.<.<.<.<.<.<.<.<.<.<.<.<.<.<.<.<.<.<.<.<.<.<.<.<.<.<.<.<."
};
