/* XPM */
static char *remote_trigger[] = {
/* columns rows colors chars-per-pixel */
"48 48 18 1 ",
"  c #1F1916",
". c #1F1917",
"X c #1E1A16",
"o c #1F1A16",
"O c #1F1B16",
"+ c #1E1A17",
"@ c #1F1A17",
"# c #1E1B17",
"$ c #1F1B17",
"% c #1E1918",
"& c #1F1918",
"* c #1F1A18",
"= c #1F1B18",
"- c #201A16",
"; c #201A17",
": c #201B17",
"> c #201A18",
", c None",
/* pixels */
",,,,,,,,,,,,,,,,,,,,,,,,,,,,,,,,,,,,,,,,,,,,,,,,",
",,,,,,,,,,,,,,,,,,,,,,,,,,,,,,,,,,,,,,,,,,,,,,,,",
",,,,,,,,,,,,,,,,,,,,,,,,,,,,,,,,,,,,,,,,,,,,,,,,",
",,,,,,,,,,,,,,,,,,,,,,,,,,,,,,,,,,,,,,,,,,,,,,,,",
",,,,,,,,,,,,,,,,,,,,,,,Xo,,,,,,,,,,,,,,,,,,,,,,,",
",,,,,,,,,,,,,,,,,,,,,,@,,,,,,,,,,,,,,,,,,,,,,,,,",
",,,,,,,,,,,,,,,,,,,,,-,,,@,,,,,,,,,,,,,,,,,,,,,,",
",,,,,,,,,,,,,,,,,,,,@,,,@,,,,,,,,,,,,,,,,,,,,,,,",
",,,,,,,,,,,,,,,,,,,,@,,@,,,,,,,,,,,,,,,,,,,,,,,,",
",,,,,,,,,,,,,,,,,,,,,,,,,,@,,,,,,,,,,,,,,,,,,,,,",
",,,,,,,,,,,,,,,,,,,*,,X,,o,,,,,,,,,,#,,,,,,,,,,,",
",,,,,,,,,,,,,,,,,,,:,,@,,@,,@,,,,,,,*,,,,,,,,,,,",
",,,,,,,,,,,,,,,,,,,-,,@,,,,@@,,$,,@,,,,,,,,,,,,,",
",,,,,,,,,,,,,,,,,,,,,,,,,,,@o,,>,,,,@,,,,,,,,,,,",
",,,,,,,,,,,,,,,,,,,,,,,,,,@@,,@,,@,,$,,,,,,,,,,,",
",,,,,,,,,,,,,,,,,,,,,,,,,,@,,,,,,*,,=,,,,,,,,,,,",
",,,,,,,,,,,,,,,,,,,,,,,,,*@,,,,@@,,@,,,,,,,,,,,,",
",,,,,,,,,,,,,,,,,,,,,,,,,@,,,,,,,,%,,,,,,,,,,,,,",
",,,,,,,,,,,,,,,,,,,,,,,$@@,,,,,,,;.,,,,,,,,,,,,,",
",,,,,,,,,,,,,,,,,,,,,,,@@@&,,,,*@,,,,,,,,,,,,,,,",
",,,,,,,,,,,,,,,,,,,,,,@@@@@@,,,,,,,,,,,,,,,,,,,,",
",,,,,,,,,,,,,,,,,,,,,;@@@@@@@@,,,,,,,,,,,,,,,,,,",
",,,,,,,,,,,,,,,,,,,,,@@@@@@@@@@;,,,,,,,,,,,,,,,,",
",,,,,,,,,,,,,,,,,,,,O@@@@@@@@@@*,,,,,,,,,,,,,,,,",
",,,,,,,,,,,,,,,,,,,,@@@@@@@@@@@,,,,,,,,,,,,,,,,,",
",,,,,,,,,,,,,,,,,,,@@@@@@@@@@@@,,,,,,,,,,,,,,,,,",
",,,,,,,,,,,,,,,,,,,@@@@@@@@@@@,,,,,,,,,,,,,,,,,,",
",,,,,,,,,,,,,,,,,,@@@@@@@@@@@>,,,,,,,,,,,,,,,,,,",
",,,,,,,,,,,,,,,,,%@@@@@@@@@@o,,,,,,,,,,,,,,,,,,,",
",,,,,,,,,,,,,,,,,@@@@@@@@@@@,,,,,,,,,,,,,,,,,,,,",
",,,,,,,,,,,,,,,,+@@@@@@@@@@@,,,,,,,,,,,,,,,,,,,,",
",,,,,,,,,,,,,,,,@@@@@@@@@@@,,,,,,,,,,,,,,,,,,,,,",
",,,,,,,,,,,,,,,+@@@@@@@@@@@,,,,,,,,,,,,,,,,,,,,,",
",,,,,,,,,,,,,,,@@@@@@@@@@@,,,,,,,,,,,,,,,,,,,,,,",
",,,,,,,,,,,,,,@@@@@@@@@@@,,,,,,,,,,,,,,,,,,,,,,,",
",,,,,,,,,,,,,@@@@@@@@@@@$,,,,,,,,,,,,,,,,,,,,,,,",
",,,,,,,,,,,,,@@@@@@@@@@@,,,,,,,,,,,,,,,,,,,,,,,,",
",,,,,,,,,,,,-@@@@@@@@@@@,,,,,,,,,,,,,,,,,,,,,,,,",
",,,,,,,,,,,,@@@=,,@@@@@,,,,,,,,,,,,,,,,,,,,,,,,,",
",,,,,,,,,,,@@@@@,, @@@o,,,,,,,,,,,,,,,,,,,,,,,,,",
",,,,,,,,,,,,:@@@@@@@@@,,,,,,,,,,,,,,,,,,,,,,,,,,",
",,,,,,,,,,,,,,@@@@@@@,,,,,,,,,,,,,,,,,,,,,,,,,,,",
",,,,,,,,,,,,,,,;@@@@@,,,,,,,,,,,,,,,,,,,,,,,,,,,",
",,,,,,,,,,,,,,,,,@@@,,,,,,,,,,,,,,,,,,,,,,,,,,,,",
",,,,,,,,,,,,,,,,,,,X,,,,,,,,,,,,,,,,,,,,,,,,,,,,",
",,,,,,,,,,,,,,,,,,,,,,,,,,,,,,,,,,,,,,,,,,,,,,,,",
",,,,,,,,,,,,,,,,,,,,,,,,,,,,,,,,,,,,,,,,,,,,,,,,",
",,,,,,,,,,,,,,,,,,,,,,,,,,,,,,,,,,,,,,,,,,,,,,,,"
};
