/* XPM */
static char *acd_filename_settings[] = {
/* columns rows colors chars-per-pixel */
"46 48 94 2 ",
"   c #030303",
".  c #090807",
"X  c #060609",
"o  c #0C0C0C",
"O  c #110F0F",
"+  c #11100F",
"@  c #1F130E",
"#  c #0C0C14",
"$  c #141313",
"%  c #181616",
"&  c #1C1B14",
"*  c #14141A",
"=  c #1C1C1C",
"-  c #281C16",
";  c #211D1D",
":  c #1E201E",
">  c #23211E",
",  c #3F2012",
"<  c #36251D",
"1  c #1D1D21",
"2  c #242424",
"3  c #282727",
"4  c #26252A",
"5  c #28272B",
"6  c #2B2B2B",
"7  c #302F2F",
"8  c #33312F",
"9  c #302F30",
"0  c #333333",
"q  c #373739",
"w  c #383738",
"e  c #373D3E",
"r  c #3C3C3C",
"t  c #442417",
"y  c #4C2C1C",
"u  c #572E1B",
"i  c #3F3F40",
"p  c #3F4243",
"a  c #434343",
"s  c #464648",
"d  c #45494A",
"f  c #4B4B4B",
"g  c #4F504F",
"h  c #4F4E51",
"j  c #504F50",
"k  c #535352",
"l  c #575855",
"z  c #585957",
"x  c #595759",
"c  c #5C5D5C",
"v  c #5F605E",
"b  c #60625F",
"n  c #5F6160",
"m  c #636463",
"M  c #676865",
"N  c #686967",
"B  c #6B6C6B",
"V  c #71716E",
"C  c #737372",
"Z  c #777A7A",
"A  c #7B7C7B",
"S  c #883B1B",
"D  c #7F807D",
"F  c #81837F",
"G  c #7F8282",
"H  c #848583",
"J  c #878887",
"K  c #878A89",
"L  c #8B8C8A",
"P  c #8E908D",
"I  c #8F9292",
"U  c #929490",
"Y  c #969894",
"T  c #9C9D9C",
"R  c #A0A09F",
"E  c #A4A5A3",
"W  c #A9ABAB",
"Q  c #B0B2AE",
"!  c #B5B7B4",
"~  c #B8B9B7",
"^  c #BABBB9",
"/  c #C5C5C4",
"(  c #CBCBCA",
")  c #D0D0CF",
"_  c #D3D3D2",
"`  c #D7D9D7",
"'  c #DBDCDB",
"]  c #E5E5E5",
"[  c #E7E8E7",
"{  c #E8E8E7",
"}  c #EDEDED",
"|  c #F3F3F3",
" . c #F9F9F9",
".. c None",
/* pixels */
"............................................................................................",
"............................................................................................",
"............................................................................................",
"............................................................................................",
"............................................................................................",
"............................................... = o ........$ % ............................",
"........................................  o $ = 9 0 6 0 2 2 r 6 $ $ o ......................",
"........................................$ 2 6 = 0 n N Z z r C s 2 6 % o ....................",
"......................................X = 6 3 = 2 i f c k q j 0 : 6 : o ....................",
"......................................o $ = % $ $ $ $ % $ $ $ $ $ = = +   ..................",
"..................................... $ + # o + o $ o o + + o + o + + $ . ..................",
"..................7 2 3 6 6 2 2 $ . + = + + o $ $ o o $ o + # + # + + $ % o ................",
"............o & > r r 0 8 6 3 2 = $ = = $ $ $ $ $ $ $ $ $ $ $ + $ $ % = 2 $ X   ............",
"......    . + & > 6 3 2 2 2 2 > : : : = = = = = = = = 1 : = = = % = = = 2 2 $ o o .     ....",
"..  $ O O # $ $ % = = $ - y < 2 : 2 : = 1 : : 3 3 6 6 q 9 9 3 2 2 : = = = 6 2 = $ + + o   ..",
"  + & = % % % % % ; & O t S u 8 6 2 2 = : 2 6 9 j f 0 q 6 r d a 0 3 2 : = 2 6 2 = % = = X ..",
". ; ; = % = : > 2 : = o @ t < 0 0 2 = 2 9 a h 4 5 1 # 1 # * 1 5 9 q 6 4 2 1 9 0 2 1 = 2 + ..",
"O ; ; ; = > 2 2 6 2 % o o $ : 2 0 2 2 9 j h 4 1 1 # # # # # # # 1 5 p s r 6 0 q 0 ; = 6 = ..",
"@ = > 6 6 2 : 2 7 2 % o . + * 2 6 6 s k s m _ ' _ ^ J 1 # # # # # # 4 h l r 0 0 r 2 = > 6   ",
"% 3 8 0 w 0 2 = : 2 6 % . o % 2 2 f x h j {  .} _ U s * # # # # # # * 0 i q 6 w d 3 = : w X ",
"; 0 0 0 7 > & = $ o % $ . o % : 0 j x 0 T ]  .} d       X   X # * $ # * 2 3 3 q a 6 = = r o ",
"2 0 0 0 w w 7 6 % . X . . # $ = 0 0 q 1 H ] } } l               # * * * 1 2 3 9 0 6 2 = r % ",
"2 0 0 q i w 0 6 $ X     . + * : 6 6 1 0 Z ` { } R   X . o X       # 1 * * 1 3 5 6 6 2 : 0 6 ",
"2 0 0 r p e 7 2 $ .     . + $ 3 6 2 = x Y E [ [ ' M $ 9 H h o     X * * 1 1 2 6 2 2 = = 6 0 ",
"2 0 0 r a r 8 2 $ .     X o $ 3 5 2 1 K ~ C T ' ' Q A ( / = o . X X $ = * 1 2 6 2 % 6 6 0 i ",
"3 0 0 r s i 8 2 $ X     . o $ 6 6 2 1 ! G W e K ' ( J ( V O $ o . . $ 1 = 1 2 6 2 = 0 p 0 s ",
"3 0 0 i d i 8 2 $       . + $ 3 6 3 M ` G p Z p ( ) L J o . $ o o o * 2 1 1 3 6 2 % = 0 0 f ",
"3 0 0 i s a 9 2 $ X     . + $ 6 5 z / ` ) p I n _ ~ A   X o $ . o $ = 6 2 3 5 6 : = % 6 0 f ",
"6 0 0 i f a 0 2 $ X     . + $ 3 l Y d a [ / P g k + + + + $ o . $ = 6 0 0 0 6 6 2 = * : 6 d ",
"3 8 0 a g a 0 2 $ .     . + $ k G r f n _ p + = o . o # o o . + $ 2 0 i i i 6 6 6 3 = : 3 a ",
"6 0 0 a g a 0 2 $ X     . o f V 2 0 f ^ a a 0 % + o o . . o o $ % 6 i a d i 6 6 q 6 : : 3 p ",
"3 0 0 i g d 0 2 $ .   X . g b = = 0 T d f f p 6 + # X . . X + $ 2 0 w a s w 6 6 q 2 1 : 3 r ",
"3 0 0 i g s w 2 $ .     s m > = : H f g g d a r 6 % $ $ + % = 4 6 7 0 e d i 7 8 0 2 = 2 2 0 ",
"2 0 0 p g s 8 2 $ .   g v 0 7 3 B f d f f s a r 0 6 6 3 2 6 6 6 6 2 7 a g e 6 0 6 > : = 2 r ",
"2 0 0 a g d w 2 $ . l v f a e b g : 9 f l a r 0 6 3 6 6 6 3 3 3 3 6 e k s 6 3 6 2 = 2 2 6 f ",
"> 8 0 i g d 8 > % A N m v k c b = = 2 0 a 7 w 0 7 3 3 2 4 3 3 6 0 r a e 6 2 2 2 = > = = 6 c ",
"2 0 0 i f s w 3 K C Z C N b M + = % = : 2 6 6 0 9 9 9 6 9 9 9 9 r a 0 2 2 : 2 = = 2 = 2 2 f ",
"> 0 0 i f s w V C A K A B B + + $ # o + = % 2 6 3 6 6 6 6 6 3 3 6 8 = = = = = = = = = = 1 2 ",
"% 0 0 r f a N b B A D C V + o o o o o o o o $ % : 2 2 2 6 3 3 : : % = = = = = = = 2 : = = o ",
". 2 0 e s M z c M B V T %   . . . . . . o . . o $ $ = = = = = = % = = : > : 2 = = = = % o ..",
"... $ % N v l P x c ~ q                     X     X X . . . . . . o o o o o o o o . . ......",
"......l c ....f z E B ......................................................................",
"......l N ....l P N ........................................................................",
"........F P ..D a ..........................................................................",
"........6 M N 0 ............................................................................",
"............................................................................................",
"............................................................................................",
"............................................................................................"
};
