/* XPM */
static char *xct_backup_settings[] = {
/* columns rows colors chars-per-pixel */
"48 48 110 2 ",
"   c #040404",
".  c #0B0B0B",
"X  c #151515",
"o  c #171818",
"O  c #1B1C1B",
"+  c #1E2223",
"@  c #252525",
"#  c #222628",
"$  c #252A2B",
"%  c #2A2A2A",
"&  c #2F302E",
"*  c #30312F",
"=  c #292E31",
"-  c #2E3436",
";  c #343634",
":  c #393A37",
">  c #313739",
",  c #343A3C",
"<  c #3B3C3B",
"1  c #3E403D",
"2  c #40423F",
"3  c #3A3F40",
"4  c #3D4345",
"5  c #424443",
"6  c #474846",
"7  c #484A47",
"8  c #434749",
"9  c #444A4B",
"0  c #4C4D4C",
"q  c #4F504E",
"w  c #52524F",
"e  c #4C4F50",
"r  c #4C5253",
"t  c #4E585B",
"y  c #545653",
"u  c #565855",
"i  c #595B57",
"p  c #545758",
"a  c #54595A",
"s  c #5C5D5B",
"d  c #5D615D",
"f  c #60625F",
"g  c #555F61",
"h  c #5D6161",
"j  c #5D666A",
"k  c #5D686B",
"l  c #636463",
"z  c #676964",
"x  c #686A66",
"c  c #646768",
"v  c #656A6B",
"b  c #6C6D6B",
"n  c #6F716D",
"m  c #71736E",
"M  c #626D71",
"N  c #6C7577",
"B  c #677378",
"V  c #737573",
"C  c #767975",
"Z  c #797B77",
"A  c #757A7C",
"S  c #7C7D7A",
"D  c #7F807C",
"F  c #81837F",
"G  c #6F7C80",
"H  c #758187",
"J  c #7F8080",
"K  c #768388",
"L  c #7B868A",
"P  c #7F8B90",
"I  c #838582",
"U  c #878985",
"Y  c #888A85",
"T  c #8C8D8A",
"R  c #8F908C",
"E  c #90938E",
"W  c #818F95",
"Q  c #859195",
"!  c #8C9092",
"~  c #949593",
"^  c #979A95",
"/  c #999B97",
"(  c #949B9F",
")  c #9C9D9B",
"_  c #9EA19D",
"`  c #A1A29E",
"'  c #9BA0A0",
"]  c #A4A5A4",
"[  c #A7ABA7",
"{  c #A8A9A6",
"}  c #A6ABAC",
"|  c #ABACAB",
" . c #AFB1AD",
".. c #B0B1AF",
"X. c #AFB4B6",
"o. c #B3B4B3",
"O. c #B8B8B7",
"+. c #B1B9BC",
"@. c #BCBDBC",
"#. c #BEC0BD",
"$. c #C3C3C3",
"%. c #C8C8C7",
"&. c #CBCBCA",
"*. c #D2D2D2",
"=. c #DADADA",
"-. c #E3E3E3",
";. c #EBECEB",
":. c #F4F4F4",
">. c #FFFFFF",
",. c None",
/* pixels */
",.,.,.,.,.,.,.,.,.,.,.,.,.,.,.,.,.,.,.,.,.,.,.,.,.,.,.,.,.,.,.,.,.,.,.,.,.,.,.,.,.,.,.,.,.,.,.,.",
",.,.,.,.,.,.,.,.,.,.,.,.,.,.,.,.,.,.,.,.,.,.,.,.,.,.,.,.,.,.,.,.,.,.,.,.,.,.,.,.,.,.,.,.,.,.,.,.",
",.,.,.,.,.,.,.,.,.,.,.,.,.,.,.,.,.,.,.,.,.,.,.,.,.,.,.,.,.,.,.,.,.,.,.,.,.,.,.,.,.,.,.,.,.,.,.,.",
",.,.,.,.,.,.,.,.,.,.,.,.,.,.,.,.,.,.,.,.,.,.,.,.,.,.,.,.,.,.,.,.,.,.,.,.,.,.,.,.,.,.,.,.,.,.,.,.",
",.,.F ,.Z x m ,.,.,.,.,.,.,.,.,.,.,.,.,.,.,.,.,.,.{ ] ] { { { ] { ,.,.,.,.,.,.,.,.,.,.,.,.,.,.,.",
",.,.S ,.T l V V m ,.,.,.,.,.,.,.,.,.,.,.,.,.,.,.| -.:.:.:.:.:.:.;.| ,.,.,.,.,.,.,.,.,.,.,.,.,.,.",
",.,.,.D x x S S h w x T ,.,.,.,.,.,.,.,.,.,.,.,.@.>.>.>.>.>.>.>.>.%.,.,.,.,.,.,.,.,.,.,.,.,.,.,.",
",.,.,.,.,.,.V V l 5 @ @ s ` { ,._ E { { ,.,.,.,.&.-.-.-.-.-.-.-.-.&.T ,.,.,.,.,.,.,.,.,.,.,.,.,.",
",.,.,.,.,.,.,.,.,.,.V s ; O O.~ E O.;.>.@.,.,.,.%.*.*.*.*.*.*.&.*.*.b ,.,.,.,.,.,.,.,.,.,.,.,.,.",
",.,.,.,.,.,.,.,.,.,.,.,.,.{ o.A d ;.=.~ @.,.,.w x o.&.&.%.%.&.&.$.D y ,.,.,.,.,.,.,.,.,.,.,.,.,.",
",.,.,.,.,.,.,.,.,.,.,.,.,.,.I s O.&.,.,.,.,.,.5 5 5 2 2 2 2 2 2 2 2 2 ,.,.,.,.,.,.,.,.,.,.,.,.,.",
",.,.,.,.,.,.,.,.,.,.,.,.,.,.,.{ #.,.,.,.,.,.,.% % = ,.,.,.,.,.,.,.% & ,.,.,.,.,.,.,.,.,.,.,.,.,.",
",.,.,.,.,.,.,.,.,.,.,.,.,.,.,.,.,.,.,.,.,.,.,.O O O ,.,.,.,.,.,.,.O O O ,.,.,.,.,.,.,.,.,.,.,.,.",
",.,.,.,.,.,.,.,.,.,.,.,.,.,.,.,.,.,.,.,.,.,.,.X X @ % % % % @ % % O X X ,.,.,.,.,.,.,.,.,.,.,.,.",
",.,.,.,.,.,.,.,.,.,.,.,.,.,.,.,.,.,.,.,.,.,.O * R / ) ) ) ` ` ` ` ) ; X ,.,.,.,.,.,.,.,.,.,.,.,.",
",.,.,.,.,.,.,.,.,.,.,.,.,.,.,.,.,.,.,.,.,.; C ] d u i d f l z x x b I : @ ,.,.,.,.,.,.,.,.,.,.,.",
",.,.,.,.,.,.,.,.,.,.,.,.,.,.% % % % % 1 u ] ^ m w u i d f f x x z z x D y % % & % ,.,.,.,.,.,.,.",
",.,.,.,.,.,.,.% % % ; w n F R _ { o.] ) ^ I S m l z x b m m m C m C m d Y Y Y Y C q % ,.,.,.,.,.",
",.,.,.,.% % i D _  .O. .] _ _ E R d d l l q V ) { [ [ [ [ [ [ [ } [ [ E x m m n C U Y 7 % ,.,.,.",
",.,.% ; Y o. .` ^ T F F Y Y Y F U 0 :.>.>.l f ) V Z Z S D F F F F F F / m x z z x n V R % ,.,.,.",
",.,.< ..] E Y Y F 0 7 * y F _ _ V 0 ;.:.:.f J b w u d d f z z z x z z n ~ z x C x x V E % ,.,.,.",
",.% m { Y Y Y Y C 7 x * : Y  .; ; 7 &.*.*.s I w y i k k k d t r r a z z F C z x i y l R % ,.,.,.",
",.% s  .Y Y Y Y Y m y i D ` C ; ; 0 u i s w s i N K G B M k g r 9 4 4 y x T z z l f z E % ,.,.,.",
",.@ i T  ./ Y U Y Y F T ` Y ; ; ; < 1 2 6 S p G Q Q ( ' ! J N D A j 8 > 6 b Z x x l z T % ,.,.,.",
",.% i S i T | $.#.#.#._ f 1 ; ; ; : < 1 b s G W +.} b 4 - > > - 3 p b c 3 3 C b z z x T % ,.,.,.",
",.% y S y y u u d u 7 2 1 : ; ; ; : 1 5 x B G X.v > r x V V V V c 0 , 9 N 3 9 b z z z Y % ,.,.,.",
",.@ y S u y u y y 0 0 2 1 1 * ; : : < y g G ) 8 q N s 8 > - - > 8 g b 8 , c 3 s z z z Y % ,.,.,.",
",.% y S y u y u y q 7 5 1 : ; ; ; : < e c ! , p v 4 - @ O o O # = - 8 e - > c 8 z z x U % ,.,.,.",
",.@ w D u u y y y q 7 5 2 : ; ; ; : < 0 G 8 > p , $ . . .   . X + % ; - - - , p d z z U % ,.,.,.",
",.@ q Z w u y y w q 7 2 2 : ; ; : : < p g - - - + .           . . O ; > - - - r d b z I % ,.,.,.",
",.% q F u y u y w q 7 2 1 : ; ; ; : 1 c 3 = - % .   : h l 6 O O O X @ 3 > - - > h _ m I % ,.,.,.",
",.% 7 D y u y u w w 7 2 2 : ; ; ; : 1 g - - - o . * $.*.m S g % % @ O ; 5 - - - r C ^ F % ,.,.,.",
",.% 0 S y u y y y q 7 2 2 1 * ; ; : < 0 - - $ o   w ! / O.-.*.V 5 ; % % w > - - 4 s ] J @ ,.,.,.",
",.% 0 S u y u y y 0 w 2 2 1 ; ; : : 2 5 - - $ X   y n ` -.-.=.J V 5 < % p < - - , b ) J @ ,.,.,.",
",.% 7 S y u y i w 0 2 2 1 1 * ; ; : < , - - $ X   < V $.-.-.@.! T p 6 ; p 4 > = > ) A J ; ,.,.,.",
",.% 6 S y y y w w q 0 2 1 1 ; ; ; : 2 4 - - - o   X 0 ..=.$.~ ~ ~ s e < s 4 > > > V c J & ,.,.,.",
",.@ 6 Z y y y u w q q 2 1 1 & * ; : < 4 - - - % . o @ 6 J T ~ ] T h e 5 b < = > < z x S % ,.,.,.",
",.@ 6 Z u y u y w q 7 2 1 ; 2 z l x b y - - - : . X @ ; p S T I b s 0 e b ; > > q Z S y % ,.,.,.",
",.@ ; F l y y y y q 7 2 2 2 f 1 % % @ ; - - - , * X + * 1 0 p s s =.6 V e > = = * * * & ,.,.,.,.",
",.,.% 6 C S m z d d i d z d * @ ,.,.,.,., - - > 6 > O % ; 5 6 w 0 6 b c = > > > X ,.,.,.,.,.,.,.",
",.,.,.@ % < y l f f i q : % @ ,.,.,.,.,.+ - - - > w 0 % % ; < 3 e C x > - - - @ ,.,.,.,.,.,.,.,.",
",.,.,.,.,.+ @ @ @ % @ $ + ,.,.,.,.,.,.,.,.= - - - > 9 l x l b Z V r - - - - $ ,.,.,.,.,.,.,.,.,.",
",.,.,.,.,.,.,.,.,.,.,.,.,.,.,.,.,.,.,.,.,.,.- - - - - - 3 8 8 , - - - - - - ,.,.,.,.,.,.,.,.,.,.",
",.,.,.,.,.,.,.,.,.,.,.,.,.,.,.,.,.,.,.,.,.,.,.= - - - - - - - - - - - - = ,.,.,.,.,.,.,.,.,.,.,.",
",.,.,.,.,.,.,.,.,.,.,.,.,.,.,.,.,.,.,.,.,.,.,.,.,.- > - - - - - - - - ,.,.,.,.,.,.,.,.,.,.,.,.,.",
",.,.,.,.,.,.,.,.,.,.,.,.,.,.,.,.,.,.,.,.,.,.,.,.,.,.,.,.- - - - ,.,.,.,.,.,.,.,.,.,.,.,.,.,.,.,.",
",.,.,.,.,.,.,.,.,.,.,.,.,.,.,.,.,.,.,.,.,.,.,.,.,.,.,.,.,.,.,.,.,.,.,.,.,.,.,.,.,.,.,.,.,.,.,.,.",
",.,.,.,.,.,.,.,.,.,.,.,.,.,.,.,.,.,.,.,.,.,.,.,.,.,.,.,.,.,.,.,.,.,.,.,.,.,.,.,.,.,.,.,.,.,.,.,."
};
