/* XPM */
static char *acd_autostart_settings[] = {
/* columns rows colors chars-per-pixel */
"48 48 133 2 ",
"   c #010101",
".  c #050803",
"X  c #090C06",
"o  c #0B1206",
"O  c #0E1509",
"+  c #121B0C",
"@  c #1B1C1B",
"#  c #16200E",
"$  c #182410",
"%  c #1C2A12",
"&  c #1E201F",
"*  c #213216",
"=  c #253718",
"-  c #293D1B",
";  c #272726",
":  c #272927",
">  c #2C2C2B",
",  c #2E3436",
"<  c #323332",
"1  c #383937",
"2  c #313638",
"3  c #353B3C",
"4  c #3D3E3B",
"5  c #2B4D09",
"6  c #2E510B",
"7  c #31550C",
"8  c #345A0F",
"9  c #2E451E",
"0  c #365E10",
"q  c #385F11",
"w  c #3B6513",
"e  c #3E6A15",
"r  c #334C21",
"t  c #375223",
"y  c #395625",
"u  c #3C5A27",
"i  c #3E5D28",
"p  c #3F413E",
"a  c #416D17",
"s  c #45731A",
"d  c #4B7C1D",
"f  c #43632B",
"g  c #46692D",
"h  c #496D2F",
"j  c #4A6B33",
"k  c #4E7533",
"l  c #557A3A",
"z  c #5A7E3F",
"x  c #3A3E40",
"c  c #434442",
"v  c #464845",
"b  c #494947",
"n  c #44494B",
"m  c #4C4D4B",
"M  c #51534F",
"N  c #545652",
"B  c #5C5E5A",
"V  c #56624F",
"C  c #597A42",
"Z  c #5D754B",
"A  c #5C6B50",
"S  c #5E605C",
"D  c #676965",
"F  c #696A66",
"G  c #6B6C6A",
"H  c #6F726D",
"J  c #71726E",
"K  c #6D7070",
"L  c #747573",
"P  c #777A75",
"I  c #7A7C77",
"U  c #7C7E7B",
"Y  c #4E8220",
"T  c #518622",
"R  c #558C24",
"E  c #54832E",
"W  c #5A9227",
"Q  c #5C9629",
"!  c #65864D",
"~  c #708C5C",
"^  c #7B926B",
"/  c #7D8177",
"(  c #7E807B",
")  c #81827E",
"_  c #818B79",
"`  c #819174",
"'  c #7E8181",
"]  c #848583",
"[  c #878886",
"{  c #8A8D87",
"}  c #8B8C89",
"|  c #8F908D",
" . c #90928D",
".. c #929491",
"X. c #979996",
"o. c #9A9C96",
"O. c #9C9D9A",
"+. c #9DA19B",
"@. c #A2A49F",
"#. c #A3B396",
"$. c #A3A5A1",
"%. c #A5A8A4",
"&. c #A9AAA6",
"*. c #ACACAA",
"=. c #ADB5A6",
"-. c #AEB1AC",
";. c #B2B4AF",
":. c #B4B5B2",
">. c #B6B9B3",
",. c #B9B9B6",
"<. c #BCBEBB",
"1. c #BDC0B9",
"2. c #C3C5BF",
"3. c #C3C4C1",
"4. c #C6C9C3",
"5. c #C9CBC5",
"6. c #CDCECB",
"7. c #CFD0CC",
"8. c #D3D7CF",
"9. c #D5D6D2",
"0. c #D7D8D4",
"q. c #D9DAD6",
"w. c #DCDCD9",
"e. c #DEE0DC",
"r. c #E0E2DE",
"t. c #E4E5E2",
"y. c #E7E8E6",
"u. c #E8E9E7",
"i. c #EEEEEC",
"p. c #EFF0EE",
"a. c #F0F0EF",
"s. c #F3F4F3",
"d. c None",
/* pixels */
"d.d.d.d.d.d.d.d.d.d.d.d.d.d.d.d.d.d.d.d.d.d.d.d.d.d.d.d.d.d.d.d.d.d.d.d.d.d.d.d.d.d.d.d.d.d.d.d.",
"d.d.d.d.d.d.d.d.d.d.d.d.d.d.d.d.d.d.d.d.d.d.d.d.d.d.d.d.d.d.d.d.d.d.d.d.d.d.d.d.d.d.d.d.d.d.d.d.",
"d.d.d.d.d.d.d.d.d.d.d.d.d.d.d.d.d.d.d.d.d.d.d.d.d.d.d.d.d.d.d.d.d.d.d.d.d.d.d.d.d.d.d.d.d.d.d.d.",
"d.d.d.d.d.d.d.d.d.d.d.d.d.d.d.d.d.d.d.d.d.d.d.d.d.d.d.d.d.d.d.d.d.d.d.d.d.d.d.d.d.d.d.d.d.d.d.d.",
"d.d.d.d.d.d.d.d.d.d.d.d.d., , , , , , , , , , , , , , , , , , , , , , , , , , , , d.d.d.d.d.d.d.",
"d.d.d.d.d.d.d.d.d.d.d.d.d., 8.8.5.&.L N N m m v c p 4 1 1 < > :               o , d.d.d.d.d.d.d.",
"d.d.d.d.d.d.d.d.d.d.d.d.d., 8.i.i.i.p.q.&.) U I L L J G F F F <               5 , d.d.d.d.d.d.d.",
"d.d.d.d.d.d.d.d.d.d.d.d.d., 8.i.i.i.i.i.t.9.*.| } ] ] ( I I } 4               5 , d.d.d.d.d.d.d.",
"d.d.d.d.d.d.d.d.d.d.d.d.d., 9.i.i.i.i.i.t.e.w.7.;.o... .{ { *.b   . .     . . 5 , d.d.d.d.d.d.d.",
"d.d.d.d.d.d.d.d.d.d.d.d.d., 8.i.i.i.i.i.t.e.w.9.7.4.:.@.@.o.2.M . . . . . . . 6 , d.d.d.d.d.d.d.",
"d.d.d.d.d.d.d.d.d.d.d.d.d., 8.p.i.i.i.i.u.r.w.9.7.5.2.<.;.;.0.B X X X X X X X 7 , d.d.d.d.d.d.d.",
"d.d.d.d.d.d.d.d.d.d.d.d.d., 8.i.i.i.i.i.t.r.w.9.7.5.2.1.>.>.r.B o o o o o o o 7 , d.d.d.d.d.d.d.",
"d.d.d.d.d.d.d.d.d.d.d.d.d., 8.i.i.i.i.i.t.r.w.9.8.5.2.1.>.>.r.B O O O O O O O 7 , d.d.d.d.d.d.d.",
"d.d.d.d.d.d.d.d.d.d.d.d.d., 8.i.i.i.i.i.t.r.w.0.6.5.2.1.>.>.r.B + + + O O + + 0 , d.d.d.d.d.d.d.",
"d.d.d.d.d.d.d.d.d.d.d.d.d., 9.i.i.a.w.&.:.6.w.9.6.5.2.1.>.>.r.S + # + # + + + q , d.d.d.d.d.d.d.",
"d.d.d.d.d.d.d.d.d.d.d.d.d., 8.i.i.2.5.s.w.1.&.8.7.5.2.1.>.>.r.S # # # # # # # q , d.d.d.d.d.d.d.",
"d.d.d.d.d.d.d.d.d.d.d.d.d., 9.i.i.*.i.s.O...3.9.7.6.3.<.,.:.r.B $ $ $ $ $ $ $ w , d.d.d.d.d.d.d.",
"d.d.d.d.d.d.d.d.d.d.d.d.d., 8.i.5.O.u.s.:.r.w.9.7.4.3.<.,.,.r.B % % % % % $ $ w , d.d.d.d.d.d.d.",
"d.d.d.d.d.d.d.d.d.d.d.d.d., 8.i.*.[ u.i.<.r.w.9.7.4.3.<.>.>.r.S % % % % % % % e , d.d.d.d.d.d.d.",
"d.d.d.d.d.d.d.d.d.d.d.d.d., 8.u.;.U 9.t.,.6.6.:.6.4.3.<.N >.r.S * * * * * * * e , d.d.d.d.d.d.d.",
"d.d.d.d.d.d.d.d.d.d.d.d.d., 9.3.&.' x 6.6.[ 6.&.6.5.2.<.N   r.S * * * * * = * e , d.d.d.d.d.d.d.",
"d.d.d.d.d.d.d.d.d.d.d.d.d., 4.6.:.x n ..9.| :.,.8.5.2.<.    r.S = = = = = = = s , d.d.d.d.d.d.d.",
"d.d.d.d.d.d.d.d.d.d.d.d.d.K @.M 9.K K *.<.L ,.9.6.5.2.  N >.r.B = - - = - - - e , d.d.d.d.d.d.d.",
"d.d.d.d.d.d.d.d.d.d.d.d.O.K & ; <.3.:.,.9.r.w.9.6.5.2.2.>.>.r.B 9 - - 9 - - - s , d.d.d.d.d.d.d.",
"d.d.d.d.d.d.d.d.d.d.d.[ b @ ; @.q.i.i.u.y.r.t.q.7.5.2.1.>.>.r.B 9 9 9 9 9 9 9 s 2 d.d.d.d.d.d.d.",
"d.d.d.d.d.d.d.d.d.d.U 1 @ > X.t.i.i.i.i.u.s.s.q.7.5.2.1.>.>.r.B 9 9 9 9 9 9 r s , d.d.d.d.d.d.d.",
"d.d.d.d.d.d.d.d.d.G x , < ' 6.i.a.i.a.a.a.s.s.w.7.5.2.1.>.>.r.B r r r r r r r d , d.d.d.d.d.d.d.",
"d.d.d.d.d.d.d.J F B m v ) < 8.i.i.i.a.a.a.s.s.q.7.5.2.<.>.>.r.B r r r r r r r d 2 d.d.d.d.d.d.d.",
"d.d.d.d.d.d.J L L G B U d., 8.i.i.a.a.a.p.a.s.q.8.5.2.1.>.>.r.S t t t t t t 8 Y , d.d.d.d.d.d.d.",
"d.d.d.d.d.L H ] ] F U d.d.< 8.a.i.i.a.a.a.a.a.0.7.2.2.2.>.>.r.S y y y y y y y Y , d.d.d.d.d.d.d.",
"d.d.d.d.K B G L H P d.d.d., 8.i.i.i.i.i.i.i.i.0.7.2.2.>.>.>.r.S u u u u u u i T 2 d.d.d.d.d.d.d.",
"d.d.d.U d.] B G U d.d.d.d., 8.i.i.i.i.i.i.i.i.0.8.5.2.2.>.>.r.S i i i i i i i R , d.d.d.d.d.d.d.",
"d.d.U d.d.) D L d.d.d.d.d., 9.i.i.i.i.i.y.u.u.0.8.5.2.1.2.0.e.B f f f f f f f T < d.d.d.d.d.d.d.",
"d.d.U d.d.) d.d.d.d.d.d.d., 8.i.i.i.i.u.y.r.y.9.6.5.8.e.0.%.D V f f f f g f f R , d.d.d.d.d.d.d.",
"d.d.d.) U d.d.d.d.d.d.d.d., 8.p.i.p.p.u.r.r.r.9.e.t.8.+.J A j g g g g g g g g R , d.d.d.d.d.d.d.",
"d.d.d.d.d.d.d.d.d.d.d.d.d., 8.i.i.i.p.p.u.r.u.i.9.o./ Z j h h h h h h h h h h R , d.d.d.d.d.d.d.",
"d.d.d.d.d.d.d.d.d.d.d.d.d., 8.i.p.p.p.p.a.p.7.+._ Z k k h k k h k h k k h k k W , d.d.d.d.d.d.d.",
"d.d.d.d.d.d.d.d.d.d.d.d.d., 9.i.p.s.s.p.7.%.^ C k k k k k k k k k k k k k k k Q , d.d.d.d.d.d.d.",
"d.d.d.d.d.d.d.d.d.d.d.d.d., 8.s.s.p.4.=.^ l k k k k k k k k k k k k k k k k k Q , d.d.d.d.d.d.d.",
"d.d.d.d.d.d.d.d.d.d.d.d.d., 8.r.5.=.~ k k k k E k k k k k k k k k k k k k k k Q , d.d.d.d.d.d.d.",
"d.d.d.d.d.d.d.d.d.d.d.d.d., 7.#.! k k k k k k k k k k k k k k k k k k k k k k Q , d.d.d.d.d.d.d.",
"d.d.d.d.d.d.d.d.d.d.d.d.d., ! E Q Q Q Q Q Q Q Q Q Q Q Q Q Q Q Q Q Q Q Q Q Q Q Q , d.d.d.d.d.d.d.",
"d.d.d.d.d.d.d.d.d.d.d.d.d., > , 2 , , 2 2 2 , 2 2 2 , , 2 , , , 2 , 2 , 2 , , , , d.d.d.d.d.d.d.",
"d.d.d.d.d.d.d.d.d.d.d.d.d.d.d.d.d.d.d.d.d.d.d.d.d.d.d.d.d.d.d.d.d.d.d.d.d.d.d.d.d.d.d.d.d.d.d.d.",
"d.d.d.d.d.d.d.d.d.d.d.d.d.d.d.d.d.d.d.d.d.d.d.d.d.d.d.d.d.d.d.d.d.d.d.d.d.d.d.d.d.d.d.d.d.d.d.d.",
"d.d.d.d.d.d.d.d.d.d.d.d.d.d.d.d.d.d.d.d.d.d.d.d.d.d.d.d.d.d.d.d.d.d.d.d.d.d.d.d.d.d.d.d.d.d.d.d.",
"d.d.d.d.d.d.d.d.d.d.d.d.d.d.d.d.d.d.d.d.d.d.d.d.d.d.d.d.d.d.d.d.d.d.d.d.d.d.d.d.d.d.d.d.d.d.d.d.",
"d.d.d.d.d.d.d.d.d.d.d.d.d.d.d.d.d.d.d.d.d.d.d.d.d.d.d.d.d.d.d.d.d.d.d.d.d.d.d.d.d.d.d.d.d.d.d.d."
};
