/* XPM */
static char *camera_backup[] = {
/* columns rows colors chars-per-pixel */
"48 48 175 2 ",
"   c #040404",
".  c #0B0B0B",
"X  c #151515",
"o  c #1B1C1B",
"O  c #171818",
"+  c #06290F",
"@  c #0A2E10",
"#  c #102510",
"$  c #1C391B",
"%  c #1E2223",
"&  c #252525",
"*  c #252A2B",
"=  c #2A2A2A",
"-  c #242727",
";  c #2F302E",
":  c #30312F",
">  c #292E31",
",  c #2E3436",
"<  c #343634",
"1  c #393A37",
"2  c #313739",
"3  c #343A3C",
"4  c #3C3D3B",
"5  c #214D1D",
"6  c #26471D",
"7  c #22531B",
"8  c #3F7B16",
"9  c #2F4429",
"0  c #274827",
"q  c #334C2B",
"w  c #324A28",
"e  c #2B5322",
"r  c #2D5B25",
"t  c #3A512F",
"y  c #3E403D",
"u  c #3A4933",
"i  c #3D5631",
"p  c #326025",
"a  c #3B6A2A",
"s  c #2C7722",
"d  c #3D7129",
"f  c #40423F",
"g  c #496E39",
"h  c #4B7339",
"j  c #53773A",
"k  c #3A3F40",
"l  c #3D4345",
"z  c #424444",
"x  c #474846",
"c  c #484947",
"v  c #434749",
"b  c #444A4B",
"n  c #4B4C4C",
"m  c #4F504E",
"M  c #4B5948",
"N  c #52524F",
"B  c #4C4F50",
"V  c #4C5253",
"C  c #4E585B",
"Z  c #545653",
"A  c #565854",
"S  c #595B57",
"D  c #54595A",
"F  c #5C5D5C",
"G  c #545758",
"H  c #4C6449",
"J  c #4D6849",
"K  c #547A40",
"L  c #5D615D",
"P  c #61635F",
"I  c #555F61",
"U  c #5D6161",
"Y  c #5D666A",
"T  c #5D686B",
"R  c #636463",
"E  c #676964",
"W  c #686A66",
"Q  c #646768",
"!  c #656A6B",
"~  c #6C6D6B",
"^  c #6F716D",
"/  c #71736F",
"(  c #626D71",
")  c #6A7478",
"_  c #737573",
"`  c #767875",
"'  c #797B77",
"]  c #757A7C",
"[  c #7B7D7A",
"{  c #4C881C",
"}  c #508B1E",
"|  c #4C842E",
" . c #4B8024",
".. c #589622",
"X. c #588936",
"o. c #569B36",
"O. c #629B2D",
"+. c #609E26",
"@. c #699D38",
"#. c #66A428",
"$. c #68A629",
"%. c #70AF2D",
"&. c #73B22E",
"*. c #6DA23C",
"=. c #7DBD33",
"-. c #74B330",
";. c #5B8646",
":. c #658D4C",
">. c #6B9D42",
",. c #6E9A4A",
"<. c #6C9647",
"1. c #6B9851",
"2. c #739C53",
"3. c #799E5D",
"4. c #77995D",
"5. c #71A048",
"6. c #77A657",
"7. c #77B853",
"8. c #79BA54",
"9. c #7D9E65",
"0. c #7F817D",
"q. c #83BE3C",
"w. c #89CA39",
"e. c #80B144",
"r. c #81837F",
"t. c #81A269",
"y. c #82AD6B",
"u. c #8DA976",
"i. c #89A673",
"p. c #99CE7D",
"a. c #6F7C80",
"s. c #798386",
"d. c #7F8B90",
"f. c #838582",
"g. c #878985",
"h. c #888A85",
"j. c #8C8D8A",
"k. c #8F908C",
"l. c #90938E",
"z. c #818F95",
"x. c #899194",
"c. c #949594",
"v. c #979A95",
"b. c #9B9D9B",
"n. c #979B9B",
"m. c #9BB684",
"M. c #9EA19D",
"N. c #A8BF8F",
"B. c #A1A29E",
"V. c #9BA0A0",
"C. c #A4A5A4",
"Z. c #A7ABA7",
"A. c #A8A9A6",
"S. c #ACADAB",
"D. c #A6ABAC",
"F. c #AFB1AD",
"G. c #B0B1AF",
"H. c #AFB4B6",
"J. c #B4B4B3",
"K. c #BDBEBC",
"L. c #B1B9BC",
"P. c #ACC293",
"I. c #B6CA9D",
"U. c #BCCFA3",
"Y. c #BEC0BD",
"T. c #C3C3C3",
"R. c #CACACA",
"E. c #C8C8C7",
"W. c #D2D2D2",
"Q. c #DADADA",
"!. c #E3E3E3",
"~. c #ECECEC",
"^. c #F4F4F4",
"/. c white",
"(. c None",
/* pixels */
"(.(.(.(.(.(.(.(.(.(.(.(.(.(.(.(.(.(.(.(.(.(.(.(.(.(.(.(.(.(.(.(.(.(.(.(.(.(.(.(.(.(.(.(.(.(.(.(.",
"(.(.(.(.(.(.(.(.(.(.(.(.(.(.(.(.(.(.(.(.(.(.(.(.(.(.(.(.(.(.(.(.(.(.(.(.(.(.(.(.(.(.(.(.(.(.(.(.",
"(.(.(.(.(.(.(.(.(.(.(.(.(.(.(.(.(.(.(.(.(.(.(.(.(.(.(.(.(.(.(.(.(.(.(.(.(.(.(.(.(.(.(.(.(.(.(.(.",
"(.(.(.(.(.(.(.(.(.(.(.(.(.(.(.(.(.(.(.(.(.(.(.(.(.(.(.(.(.(.(.(.(.(.(.(.(.(.(.(.(.(.(.(.(.(.(.(.",
"(.(.(.(.(.(.(.(.(.(.(.(.(.(.(.(.(.(.(.(.(.(.(.(.(.A.C.C.C.C.A.A.S.(.(.(.(.(.(.(.(.(.(.(.(.(.(.(.",
"(.(.(.(.(.(.(.(.(.(.(.(.(.(.(.(.(.(.(.(.(.(.(.(.S.!.^.^.^.^.^.^.~.S.(.(.(.(.(.(.(.(.(.(.(.(.(.(.",
"(.(.(.(.(.(.(.(.(.(.(.(.(.(.(.(.(.(.(.(.(.(.(.(.K././././././././.E.(.(.(.(.(.(.(.(.(.(.(.(.(.(.",
"(.(.(.(.(.(.(.(.(.(.(.(.(.(.(.(.(.(.(.(.(.(.(.(.R.!.!.!.!.!.!.!.!.R.j.(.(.(.(.(.(.(.(.(.(.(.(.(.",
"(.(.(.(.(.(.(.(.(.(.(.(.(.(.(.(.(.(.(.(.(.(.(.(.E.W.W.W.R.W.W.W.W.W.~ (.(.(.(.(.(.(.(.(.(.(.(.(.",
"(.(.(.(.(.(.(.(.(.(.(.(.(.(.(.(.(.(.(.(.(.(.(.Z Q J.R.R.R.R.R.E.Y.0.Z (.(.(.(.(.(.(.(.(.(.(.(.(.",
"(.(.(.(.(.(.(.(.(.(.(.(.(.(.(.(.(.(.(.(.(.(.(.f z f f f f f f f f f f (.(.(.(.(.(.(.(.(.(.(.(.(.",
"(.(.(.(.(.(.(.(.(.(.(.(.(.(.(.(.(.(.(.(.(.(.(.; = : (.(.(.(.(.(.(.: = (.(.(.(.(.(.(.(.(.(.(.(.(.",
"(.(.(.(.(.(.(.(.(.(.(.(.(.(.(.(.(.(.(.(.(.(.(.o O O (.(.(.(.(.(.(.o o o (.(.(.(.(.(.(.(.(.(.(.(.",
"(.(.(.(.(.(.(.(.(.(.(.(.(.(.(.(.(.(.(.(.(.(.(.X O = = = = - = = = o X X (.(.(.(.(.(.(.(.(.(.(.(.",
"(.(.(.(.(.(.(.(.(.(.(.(.(.(.(.(.(.(.(.(.(.(.o : k.v.b.b.b.M.M.M.M.b.< X (.(.(.(.(.(.(.(.(.(.(.(.",
"(.(.(.(.(.(.(.(.(.(.(.(.(.(.(.(.(.(.(.(.(.: ` A.F S S F P E E E E ~ g.1 & (.(.(.(.(.(.(.(.(.(.(.",
"(.(.(.(.(.(.(.(.(.(.(.(.(.(.& = = = ; 4 G C.v./ Z Z S L P E E E E E E ' Z = = ; = (.(.(.(.(.(.(.",
"(.(.(.(.(.(.(.& = = < N ^ r.k.M.A.J.M.b.c.f.[ / E E E ^ ^ / _ / _ _ _ L g.j.h.h.` m = (.(.(.(.(.",
"(.(.(.(.= = S r.b.G.J.F.A.M.M.l.k.P P R R N _ b.A.A.A.Z.Z.Z.Z.Z.Z.Z.A.l.W / ^ ^ ` g.h.c = (.(.(.",
"(.(.= < h.J.F.B.v.k.r.r.h.h.j.r.f.n ^././.P P b._ ` ' [ 0.r.r.r.r.r.f.b._ E E E W ^ _ k.= (.(.(.",
"(.(.4 G.B.l.h.h.r.n c : A h.M.M._ n ~.^.^.P r.~ N A D L L R E E E E E ~ c.E E ` W W _ l.= (.(.(.",
"(.= / A.h.h.h.h.` c ~ ; 1 r.Z.< < n R.W.W.F r.N Z S T ( T U C V C D E E f.' E Q Z S R k.= (.(.(.",
"(.= F F.h.h.h.h.h./ N S 0.M.` < < n A F F N F S ) s.a.) T Y U V b l l Z E j.E E R R E j.= (.(.(.",
"(.- S j.F.b.h.g.h.h.r.j.Z.h.< < < 1 y f x [ G a.d.x.n.V.c.s.) 0.` Y v 2 x ~ [ W E E E j.= (.(.(.",
"(.= G [ S h.F.T.Y.Y.Y.M.P y < < < < 4 f ~ F a.z.L.D.~ l , 2 2 , k N ~ I k k ` W E E E j.= (.(.(.",
"(.= Z [ G Z Z S L D c f y 1 < < < 4 4 f ! ) a.H.( 3 V Q _ _ _ _ ! B k b ~ v b _ E E E j.= (.(.(.",
"(.- Z [ A Z Z Z Z m c z y 1 < < 1 1 4 Z I a.b.l m ^ U b 2 , , 2 v U ~ v k ! k I E E E h.= (.(.(.",
"(.= Z [ Z A Z A m m c z y 1 < < < 1 4 B Q k.k G ~ l , % o O o - > , v N , , Q k E E E g.= (.(.(.",
"(.& m r.Z A Z A y.8.8.8.8.p.u < < 1 y n a.z < G 3 * . . .   . X & = 2 > , , 3 D L E E g.= (.(.(.",
"(.& m ' A Z Z Z o.I.U.U.U.6.i < 1 1 4 G I , 2 , % .           . . O < < , , , B L W E g.= (.(.(.",
"(.= m r.Z Z Z Z | P.P.P.P.1.t < < 1 4 Q 2 , , > .   1 U R x o o O X % f 2 , , , U V./ f.= (.(.(.",
"(.= c r.A Z Z Z d m.m.m.m.;.t < < 1 4 U , , , X . : T.W._ ] P * = & % < z , , 2 V ` v.r.* (.(.(.",
"(.= n [ A Z A Z p i.u.u.u.j u < < 1 y n , , = O   V k.b.J.!.W.~ z < = = G > , , z F C.f.= (.(.(.",
"(.= n [ Z A Z A 7 t.t.t.t.j 9 : < 1 y v , , * X   Z ~ B.!.!.Q.f.] z 4 ; G 3 , , < a.b.0.= (.(.(.",
"(.= n ' A Z Z Z 6 4.3.3.3.J 9 < < 1 y 3 , , * X   1 _ T.!.!.K.k.j.G z < G z , , > b.] 0.< (.(.(.",
"(.= c ' Z Z A Z 5 2.2.2.2.j 9 < < 1 y y , , > o   X n J.Q.T.c.c.c.F n 4 U z , , 2 _ Q [ = (.(.(.",
"(.= x [ Z g r e s ,.,.,.,.X.5 e r H 4 l , , , = . O & z r.j.c.C.j.U N z ~ 4 , , 4 W W [ = (.(.(.",
"(.- z [ Z a :.,.2.>.@.*.5.6.2.X.h J W G , , , 1 . X & < G [ j.g.~ F n n ~ < , , m ' ' A = (.(.(.",
"(.- < 0.R M r | X.@.*.*.+.{ 8 a 5 = - < , , , 3 < X % ; y n G F F W.n _ n , , , < ; : ; (.(.(.(.",
"(.(.= x ` [ H a } ..+.#.+...h 5 (.(.(.(.3 , , 2 v < o = < z n n n n ~ Q , , , 2 . (.(.(.(.(.(.(.",
"(.(.(.- = 4 Z 0 | $.%.&.$.+.e # (.(.(.(.% , , , 2 N B = = < 4 4 N _ ! 2 , , , & (.(.(.(.(.(.(.(.",
"(.(.(.(.(.& & - $ *.=.q.&.g @ (.(.(.(.(.(.> , , , , b Q ! P ~ ' _ B 2 , , , > (.(.(.(.(.(.(.(.(.",
"(.(.(.(.(.(.(.(.(.w q.w.<.@ (.(.(.(.(.(.(.(., , , , , , k v v 3 , , , , , > (.(.(.(.(.(.(.(.(.(.",
"(.(.(.(.(.(.(.(.(.@ j e.$ (.(.(.(.(.(.(.(.(.(.> , , , : 2 , , , , , , , , (.(.(.(.(.(.(.(.(.(.(.",
"(.(.(.(.(.(.(.(.(.(.# q (.(.(.(.(.(.(.(.(.(.(.(.(.2 , , , , , , , , , (.(.(.(.(.(.(.(.(.(.(.(.(.",
"(.(.(.(.(.(.(.(.(.(.(.(.(.(.(.(.(.(.(.(.(.(.(.(.(.(.(.(., , , , (.(.(.(.(.(.(.(.(.(.(.(.(.(.(.(.",
"(.(.(.(.(.(.(.(.(.(.(.(.(.(.(.(.(.(.(.(.(.(.(.(.(.(.(.(.(.(.(.(.(.(.(.(.(.(.(.(.(.(.(.(.(.(.(.(.",
"(.(.(.(.(.(.(.(.(.(.(.(.(.(.(.(.(.(.(.(.(.(.(.(.(.(.(.(.(.(.(.(.(.(.(.(.(.(.(.(.(.(.(.(.(.(.(.(."
};
