/* XPM */
static char *acd_ssd_filecheck_ssd[] = {
/* columns rows colors chars-per-pixel */
"49 48 121 2 ",
"   c #010101",
".  c #090909",
"X  c #313131",
"o  c #3D3D3D",
"O  c #2C6024",
"+  c #2F6629",
"@  c #30782E",
"#  c #356F30",
"$  c #3C603C",
"%  c #357330",
"&  c #377E36",
"*  c #416B32",
"=  c #434343",
"-  c #4D4D4D",
";  c #535353",
":  c #5C5C5C",
">  c #417C41",
",  c #5B7C5A",
"<  c #636363",
"1  c #6A6A6A",
"2  c #757575",
"3  c #717F71",
"4  c #7B7B7B",
"5  c #2E802A",
"6  c #2D912D",
"7  c #358235",
"8  c #3D8436",
"9  c #3E8C30",
"0  c #3D8C3B",
"q  c #359035",
"w  c #3C9037",
"e  c #3C913C",
"r  c #4A9E1F",
"t  c #42AE0E",
"y  c #47B611",
"u  c #4EB71C",
"i  c #51BC1C",
"p  c #478D27",
"a  c #4A8E26",
"s  c #458D2C",
"d  c #569B28",
"f  c #439030",
"g  c #51A820",
"h  c #50B320",
"j  c #56BF24",
"k  c #5CB923",
"l  c #4EC510",
"z  c #4FC810",
"x  c #52C314",
"c  c #50CA10",
"v  c #5BDA14",
"b  c #71CD2C",
"n  c #468346",
"m  c #448C43",
"M  c #489A46",
"N  c #588158",
"B  c #5C9D5B",
"V  c #5AA15A",
"C  c #62AA41",
"Z  c #60AA48",
"A  c #69AC4F",
"S  c #64B545",
"D  c #64BC46",
"F  c #68BA45",
"G  c #6BBE4C",
"H  c #67AE55",
"J  c #64A55E",
"K  c #6BAD5F",
"L  c #71AF5F",
"P  c #67B353",
"I  c #69B556",
"U  c #6CBB55",
"Y  c #73BA5F",
"T  c #678967",
"R  c #6D8F6D",
"E  c #719571",
"W  c #769C76",
"Q  c #6FB161",
"!  c #71B665",
"~  c #73BB65",
"^  c #70B069",
"/  c #79BB6E",
"(  c #70A670",
")  c #71AC71",
"_  c #7FA27F",
"`  c #77B575",
"'  c #7CBC74",
"]  c #66C046",
"[  c #70C550",
"{  c #7EC075",
"}  c #82AD19",
"|  c #838383",
" . c #8C8C8C",
".. c #949494",
"X. c #9B9B9B",
"o. c #80BC80",
"O. c #93B493",
"+. c #A3A3A3",
"@. c #ACACAC",
"#. c #B4B4B4",
"$. c #B4BFB4",
"%. c #BCBCBC",
"&. c #87C485",
"*. c #89C885",
"=. c #91C791",
"-. c #96D296",
";. c #98D398",
":. c #B3C6B3",
">. c #BACABA",
",. c #A8E6A8",
"<. c #C4C4C4",
"1. c #C1CDC1",
"2. c #CCCCCC",
"3. c #D3D3D3",
"4. c #DADADA",
"5. c #E4E4E3",
"6. c #E8E8E6",
"7. c #ECECEC",
"8. c #F3F3F3",
"9. c #FCFCFC",
"0. c None",
/* pixels */
"0.0.0.0.0.0.0.0.0.0.0.0.0.0.0.0.0.0.0.0.0.0.0.0.0.0.0.0.0.0.0.0.0.0.0.0.0.0.0.0.0.0.0.0.0.0.0.0.0.",
"0.0.0.0.0.0.0.0.0.0.0.0.0.0.0.0.0.0.0.0.0.0.0.0.0.0.0.0.0.0.0.0.0.0.0.0.0.0.0.0.0.0.0.0.0.0.0.0.0.",
"0.0.0.0.0.0.0.0.0.0.0.0.0.0.0.0.0.0.0.0.0.0.0.0.0.0.0.0.0.0.0.0.0.0.0.0.0.0.0.0.0.0.0.0.0.0.0.0.0.",
"0.0.0.0.0.0.0.X.@.4 @.%.2.4.4.3.3.4.3.3.3.3.3.3.3.3.2.2.<.<.<.<.<.%.<.<.<.%.@.4 @.X.0.0.0.0.0.0.0.",
"0.0.0.0.0.0.0.+.@.%.#.%.5.9.8.8.7.7.7.6.7.6.5.6.7.7.2.<.2.<.<.<.<.<.%.%.%.%.@.@.@.+.0.0.0.0.0.0.0.",
"0.0.0.0.0.0.0.@.%.%.%.<.2.3.3.3.3.3.3.2.3.3.2.3.2.3.2.%.@.#.%.#.#.#.@.#.<.<.%.%.%.@.0.0.0.0.0.0.0.",
"0.0.0.0.0.0.0.#.<.<.+.@.#.%.%.%.<.<.2.2.2.2.2.2.2.<.2.+.%.2.2.2.2.2.<...<.<.<.<.%.#.0.0.0.0.0.0.0.",
"0.0.0.0.0.0.0.<.<.<.4 2.2.2.2.2.2.3.2.3.2.3.2.3.3.4.3.+.2.2.3.2.2.2.2...2.2.2.<.<.%.0.0.0.0.0.0.0.",
"0.0.0.0.0.0.0.<.2.#. .2.2.3.3.3.3.3.3.3.3.3.3.4.9.7.2.@.3.3.3.3.3.3.2. .3.2.2.2.2.<.0.0.0.0.0.0.0.",
"0.0.0.0.0.0.4 2.2.@.X.3.3.3.3.3.3.3.3.4.3.4.7.9.7.3.@.3.3.3.3.3.3.3.3. .3.3.2.3.2.2.4 0.0.0.0.0.0.",
"0.0.0.0.0.0...2.3.+.@.3.3.3.3.4.4.4.4.4.6.9.9.5.2.%.3.4.4.4.4.4.3.4.4...2.3.3.3.2.3. .0.0.0.0.0.0.",
"0.0.0.0.0.0.+.3.3.@.%.3.4.4.4.4.4.4.7.9.9.7.3.<.2.4.4.4.4.4.4.4.4.4.4.X.2.3.3.3.3.3.+.0.0.0.0.0.0.",
"0.0.0.0.0.0.@.3.3.@.<.4.4.4.4.6.8.9.9.7.2.2.3.4.4.4.4.4.4.4.4.4.4.4.4.+.2.3.4.3.3.3.@.0.0.0.0.0.0.",
"0.0.0.0.0.0.%.4.3.%.<.4.7.9.9.9.8.5.3.3.4.4.4.4.4.5.4.4.4.4.4.4.4.4.4.#.2.4.4.4.3.3.%.0.0.0.0.0.0.",
"0.0.0.0.0.0.<.3.4.4.3.9.9.8.5.2.3.4.4.4.4.5.5.4.4.5.5.4.4.5.5.4.4.4.4.%.2.4.4.4.3.4.<.0.0.0.0.0.0.",
"0.0.0.0.0.0.2.4.4.4.4.4.4.3.2.4.4.4.4.4.4.4.4.4.4.4.4.4.4.3.) >.4.5.4.2.2.4.4.4.4.4.2.0.0.0.0.0.0.",
"0.0.0.0.0.0.3.%. .%.4.5.2.3.4.4.4.4.4.4.4.4.4.4.4.4.4.4.4.6 =.q >.4.4.3.<.4.4.<. .%.2.0.0.0.0.0.0.",
"0.0.0.0.0.0.3.%.%.3.4.<.3.4.4.4.4.4.4.4.4.4.4.4.4.4.4.3.q o.,.-.6 >.4.4.2.2.4.2.@.%.3.0.0.0.0.0.0.",
"0.0.0.0.0.0.3.4.4.4.3.%.4.4.4.4.4.3.:.1.4.4.4.3.3.4.4.e ` -.-.-.B ( 4.4.4.<.2.4.5.4.4.0.0.0.0.0.0.",
"0.0.0.0.0.0.4.5.4.4.@.3.4.4.4.3.4.O.J M :.4.4.3.4.3.m ^ *.&.&.B 8 4.4.4.4.4.#.4.4.4.4.0.0.0.0.0.0.",
"0.0.0.0.0.| 4.4.4.<.%.4.3.4.4.4.O.w ' / w >.4.3.3.m Q { ' ' J 7 4.4.4.4.4.4.%.%.4.4.4.| 0.0.0.0.0.",
"0.0.0.0.0.X.4.4.4.+.3.4.4.4.3.4.5 Q ! ~ Y 0 $.3.n H ~ ! ! K 7 3.3.4.3.4.4.4.3.+.4.4.4.X.0.0.0.0.0.",
"0.0.0.0.0.+.4.4.3.X.4.4.4.3.3.3._ 9 P U U U 8 > Z U U I L & 3.3.3.3.3.4.3.4.4.X.4.4.4.+.0.0.0.0.0.",
"0.0.0.0.0.#.4.4.2.X.4.3.4.3.3.3.3.W f S D ] F C [ G S A @ #.3.3.3.3.3.3.4.3.3.+.2.4.4.#.0.0.0.0.0.",
"0.0.0.0.0.%.4.4.<.+.4.3.3.3.3.2.3.3.E s u u i j y t r % %.%.3.3.3.2.3.3.3.3.4.+.2.4.4.%.0.0.0.0.0.",
"0.0.0.0.0.<.4.3.3.+.3.3.3.3.3.3.2.2.2.R p x l z l g % 8.3.2.2.2.3.2.2.3.3.3.3.+.3.3.4.<.0.0.0.0.0.",
"0.0.0.0.0.<.3.3.3.#.<.3.3.2.2.2.2.2.2.2.T a v v k + 4.2.<.2.2.2.2.3.2.3.3.3.<.#.3.3.4.<.0.0.0.0.0.",
"0.0.0.0.0.2.3.4.4.<.%.2.2.2.2.2.2.<.<.2.<., d b O <.<.2.2.2.<.2.2.2.2.2.3.2.%.<.3.3.4.2.0.0.0.0.0.",
"0.0.0.0.0.3.3.3.3.2.<.3.2.3.<.2.<.<.<.2.<.<., * %.<.<.<.<.<.<.2.2.2.2.2.2.2.<.2.3.3.3.3.0.0.0.0.0.",
"0.0.0.0.0.3.3.3.3.3.2.3.3.<.2.2.<.2.<.<.%.<.<.<.<.<.<.<.<.<.<.<.<.2.<.2.3.4.2.3.3.3.3.3.0.0.0.0.0.",
"0.0.0.0.0.3.3.2.2.2.2.3.5.4.<.<.<.<.<.%.%.<.%.%.%.%.%.%.<.%.<.<.<.<.<.4.5.3.2.3.2.3.3.3.0.0.0.0.0.",
"0.0.0.0.| 3.3.2.2.3.<.<.3.8.6.2.%.<.%.%.%.%.%.%.%.%.%.%.%.%.<.%.<.2.6.8.3.2.2.2.2.2.3.3.| 0.0.0.0.",
"0.0.0.0.X.3.2.2.2.2.2.<.<.2.8.9.5.2.%.%.%.#.#.%.#.#.%.%.%.%.%.2.5.9.8.2.<.2.2.2.2.3.3.3.X.0.0.0.0.",
"0.0.0.0.+.3.2.2.2.2.<.<.<.<.<.3.8.9.7.4.2.%.#.#.#.#.#.%.2.4.7.9.8.3.<.<.<.<.<.2.2.2.2.3.+.0.0.0.0.",
"0.0.0.0.@.3.%.#.<.2.<.<.<.%.%.%.%.<.4.8.9.9.9.9.8.9.9.9.9.8.4.<.%.%.%.%.<.<.<.2.2.#.%.2.@.0.0.0.0.",
"0.0.0.0.#.2... .2.<.<.<.%.%.%.#.#.#.#.#.#.%.2.2.2.2.<.<.#.#.#.#.%.%.%.%.<.<.<.2.2. ...3.#.0.0.0.0.",
"0.0.0.0.%.3.@.#.2.<.<.%.%.%.#.#.#.#.@.@.@.@.@.@.@.@.@.@.@.#.#.#.#.#.%.%.%.<.<.<.2.#.@.3.%.0.0.0.0.",
"0.0.0.0.@.%.%.#.#.#.#.#.#.@.@.@.@.+.+.+.+.+.+.+.+.+.+.+.+.+.+.@.@.@.@.@.@.#.#.#.%.#.#.%.@.0.0.0.0.",
"0.0.0.0.o : : : : < o : : : : : : : : : : < < : 1 : < < : : : : : : : : : : : : : : : : = 0.0.0.0.",
"0.0.0.0.= - - - - : . - - - - - - - - - ; < ; - 1 = : < - - - - - - - - - - - - - - - - = 0.0.0.0.",
"0.0.0.0.1 4 | 4 4 | . : < < < < < : < < < 1 : : 2 - 1 | | 4 4 4 | 4 | 4 | 4 4 } $ 4 4 | 1 0.0.0.0.",
"0.0.0.0.: 4 2 4 2 4   . X = : 1 2 2 4 2 4 1 < ; 2 - < 4 2 4 4 4 2 2 4 2 2 2 4 N 3 4 2 4 ; 0.0.0.0.",
"0.0.0.0.= - - - - - o o o = = = = - - - - ; - - ; - ; ; - - - - - ; ; - - - ; - - - - - = 0.0.0.0.",
"0.0.0.0.0.0.0.0.0.0.0.0.0.0.0.0.0.0.0.0.0.0.0.0.0.0.0.0.0.0.0.0.0.0.0.0.0.0.0.0.0.0.0.0.0.0.0.0.0.",
"0.0.0.0.0.0.0.0.0.0.0.0.0.0.0.0.0.0.0.0.0.0.0.0.0.0.0.0.0.0.0.0.0.0.0.0.0.0.0.0.0.0.0.0.0.0.0.0.0.",
"0.0.0.0.0.0.0.0.0.0.0.0.0.0.0.0.0.0.0.0.0.0.0.0.0.0.0.0.0.0.0.0.0.0.0.0.0.0.0.0.0.0.0.0.0.0.0.0.0.",
"0.0.0.0.0.0.0.0.0.0.0.0.0.0.0.0.0.0.0.0.0.0.0.0.0.0.0.0.0.0.0.0.0.0.0.0.0.0.0.0.0.0.0.0.0.0.0.0.0.",
"0.0.0.0.0.0.0.0.0.0.0.0.0.0.0.0.0.0.0.0.0.0.0.0.0.0.0.0.0.0.0.0.0.0.0.0.0.0.0.0.0.0.0.0.0.0.0.0.0."
};
