/* XPM */
static char *acd_hardware[] = {
/* columns rows colors chars-per-pixel */
"48 48 182 2 ",
"   c #0E0E0E",
".  c #141514",
"X  c #1C1D1B",
"o  c #1D2122",
"O  c #252525",
"+  c #292A29",
"@  c #2D3234",
"#  c #2B333A",
"$  c #353633",
"%  c #393A37",
"&  c #343A3C",
"*  c #3B3D3A",
"=  c #313739",
"-  c #282D30",
";  c #3E403D",
":  c #40423F",
">  c #1C364D",
",  c #0E355F",
"<  c #1D3854",
"1  c #11365C",
"2  c #163757",
"3  c #243443",
"4  c #393F40",
"5  c #0A3764",
"6  c #0B3968",
"7  c #033D78",
"8  c #103A66",
"9  c #3C4345",
"0  c #12416A",
"q  c #0B4772",
"w  c #154679",
"e  c #2B4E6F",
"r  c #434543",
"t  c #474846",
"y  c #484A47",
"u  c #434A4B",
"i  c #4C4E4C",
"p  c #4F504E",
"a  c #52524F",
"s  c #4A4E50",
"d  c #4C5254",
"f  c #4E565A",
"g  c #545653",
"h  c #565855",
"j  c #595B57",
"k  c #54595A",
"l  c #5B5D5B",
"z  c #5D615D",
"x  c #60625F",
"c  c #555F61",
"v  c #585E60",
"b  c #5D6162",
"n  c #5D676A",
"m  c #566B7E",
"M  c #636563",
"N  c #676964",
"B  c #686A66",
"V  c #6B6D6A",
"C  c #62686A",
"Z  c #6F716D",
"A  c #71736F",
"S  c #626D71",
"D  c #6D7273",
"F  c #677378",
"G  c #747672",
"H  c #767875",
"J  c #797B77",
"K  c #757A7C",
"L  c #7C7D7A",
"P  c #767778",
"I  c #7F817D",
"U  c #81837F",
"Y  c #014486",
"T  c #03478B",
"R  c #004B93",
"E  c #004E9B",
"W  c #04519D",
"Q  c #275C92",
"!  c #3D658A",
"~  c #0053A4",
"^  c #0057A9",
"/  c #0059AD",
"(  c #0E56A0",
")  c #135CA5",
"_  c #005EB3",
"`  c #0060B6",
"'  c #0062BB",
"]  c #0A64B7",
"[  c #1C6AB4",
"{  c #306BA3",
"}  c #2070BD",
"|  c #3B7CBC",
" . c #3976B4",
".. c #2A6BAC",
"X. c #506D85",
"o. c #496887",
"O. c #6F7C80",
"+. c #647B92",
"@. c #447CB6",
"#. c #447EBA",
"$. c #4B7FB4",
"%. c #4479AE",
"&. c #0066C2",
"*. c #0069C5",
"=. c #006CCB",
"-. c #1573C9",
";. c #0071D3",
":. c #0078DD",
">. c #167DD6",
",. c #2575C2",
"<. c #007CE3",
"1. c #778388",
"2. c #7F8B90",
"3. c #648099",
"4. c #4D82BC",
"5. c #4481BE",
"6. c #5486BE",
"7. c #618FBF",
"8. c #759CBE",
"9. c #3980C3",
"0. c #4484C2",
"q. c #4C8AC5",
"w. c #5688C0",
"e. c #5F8FC3",
"r. c #618EC1",
"t. c #6895C8",
"y. c #6C98C6",
"u. c #719CCC",
"i. c #7AA2CE",
"p. c #77A2CA",
"a. c #7DA5D0",
"s. c #7EA9D2",
"d. c #838581",
"f. c #878885",
"g. c #888A85",
"h. c #8C8D89",
"j. c #8F908C",
"k. c #90938E",
"l. c #818F95",
"z. c #899194",
"x. c #949694",
"c. c #9C9D9B",
"v. c #979A98",
"b. c #9EA19D",
"n. c #A1A29E",
"m. c #9BA0A0",
"M. c #A5A5A4",
"N. c #A7ABA7",
"B. c #A8A9A6",
"V. c #ACADAB",
"C. c #A7ACAD",
"Z. c #AFB1AD",
"A. c #B0B1AF",
"S. c #B3B5B2",
"D. c #BCBDBB",
"F. c #B1B9BC",
"G. c #AFB4B6",
"H. c #BEC0BD",
"J. c #82A8D4",
"K. c #8BAFD9",
"L. c #90AED1",
"P. c #8FB2D9",
"I. c #94B4D6",
"U. c #9CBBDB",
"Y. c #96B6D7",
"T. c #83A7CE",
"R. c #A3BDDB",
"E. c #ADC3DD",
"W. c #ABC5E1",
"Q. c #B1C8E2",
"!. c #C3C4C2",
"~. c #CACACA",
"^. c #C8C8C7",
"/. c #D1D1D1",
"(. c #C8D8E8",
"). c #D7E1EA",
"_. c #E3E3E3",
"`. c #EEEEEE",
"'. c #F4F4F4",
"]. c #FFFFFF",
"[. c #ECF1F5",
"{. c None",
/* pixels */
"{.{.{.{.{.{.{.{.{.{.{.{.{.{.{.{.{.{.{.{.{.{.{.{.{.{.{.{.{.{.{.{.{.{.{.{.{.{.{.{.{.{.{.{.{.{.{.{.",
"{.{.{.{.{.{.{.{.{.{.{.{.{.{.{.{.{.{.{.{.{.{.{.{.{.{.{.{.{.{.{.{.{.{.{.{.{.{.{.{.{.{.{.{.{.{.{.{.",
"{.{.{.{.{.{.{.{.{.{.{.{.{.{.{.{.{.{.{.{.{.{.{.{.{.{.{.{.{.{.{.{.{.{.{.{.{.{.{.{.{.{.{.{.{.{.{.{.",
"{.{.{.{.{.{.{.{.{.{.{.{.{.{.{.{.{.{.{.{.{.{.{.{.{.{.{.{.{.{.{.{.{.{.{.{.{.{.{.{.{.{.{.{.{.{.{.{.",
"{.{.{.{.{.{.{.{.{.{.{.{.{.{.{.{.{.{.{.{.{.{.{.{.{.B.M.M.M.M.M.B.B.{.{.{.{.{.{.{.{.{.{.{.{.{.{.{.",
"{.{.{.{.{.{.{.{.{.{.{.{.{.{.{.{.{.{.{.{.{.{.{.{.V._.'.'.'.'.'.'.`.V.{.{.{.{.{.{.{.{.{.{.{.{.{.{.",
"{.{.{.{.{.{.{.{.{.{.{.{.{.{.{.{.{.{.{.{.{.{.{.{.D.].].].].].].].].^.{.{.{.{.{.{.{.{.{.{.{.{.{.{.",
"{.{.{.{.{.{.{.{.{.{.{.{.{.{.{.{.{.{.{.{.{.{.{.{.~._._._._._._._._.~.h.{.{.{.{.{.{.{.{.{.{.{.{.{.",
"{.{.{.{.{.{.{.{.{.{.{.{.{.{.{.{.{.{.{.{.{.{.{.{.^./././././././././.V {.{.{.{.{.{.{.{.{.{.{.{.{.",
"{.{.{.{.{.{.{.{.{.{.{.{.{.{.{.{.{.{.{.{.{.{.{.g B S.~.~.^.^.^.^.!.L g {.{.{.{.{.{.{.{.{.{.{.{.{.",
"{.{.{.{.{.{.{.{.{.{.{.{.{.{.{.{.{.{.{.{.{.{.{.r r : : : : : : : : : : {.{.{.{.{.{.{.{.{.{.{.{.{.",
"{.{.{.{.{.{.{.{.{.{.{.{.{.{.{.{.{.{.{.{.{.{.{.+ + @ {.{.{.{.{.{.{.@ + {.{.{.{.{.{.{.{.{.{.{.{.{.",
"{.{.{.{.{.{.{.{.{.{.{.{.{.{.{.{.{.{.{.{.{.{.{.X X X {.{.{.{.{.{.{.X X X {.{.{.{.{.{.{.{.{.{.{.{.",
"{.{.{.{.{.{.{.{.{.{.{.{.{.{.{.{.{.{.{.{.{.{.{.. . O + + + + O + + X . . {.{.{.{.{.{.{.{.{.{.{.{.",
"{.{.{.{.{.{.{.{.{.{.{.{.{.{.{.{.{.{.{.{.{.{.X $ j.v.c.c.c.n.n.n.n.c.$ . {.{.{.{.{.{.{.{.{.{.{.{.",
"{.{.{.{.{.{.{.{.{.{.{.{.{.{.{.{.{.{.{.{.{.$ A M.x g j z x M N N N V f.* O {.{.{.{.{.{.{.{.{.{.{.",
"{.{.{.{.{.{.{.{.{.{.{.{.{.{.+ O + + + * k M.v.G a g j l x x B B B B B J g + + + + {.{.{.{.{.{.{.",
"{.{.{.{.{.{.{.O + + $ a Z I j.b.B.S.M.c.x.d.L Z M N V V A A G G G G G z g.g.g.g.J a @ {.{.{.{.{.",
"{.{.{.{.+ + j U c.A.S.Z.M.b.b.k.h.x x M M p A n.B.B.B.B.N.N.N.N.B.B.N.j.V A A A H g.g.t + {.{.{.",
"{.{.+ $ g.S.Z.n.x.j.g.g.g.g.g.g.f.i '.].].x x c.G H L L I U U U U U 1.c.A B x B V V A j.+ {.{.{.",
"{.{.; A.N.j.g.g.g.g.g.g.g.g.b.b.G i `.'.'.x U V a g k z x M N N M N N Z x.N N P B B G k.+ {.{.{.",
"{.+ A B.U g.g.g.g.g.g.g.g.g.N.$ $ t ~././.l U a a z n S n z f d f l N N U J N B h h x j.+ {.{.{.",
"{.+ l Z.g.g.g.g.g.g.g.g.g.b.G $ % t j l l p l j F 1.O.F n n b d u 9 9 g B h.N N x x N j.+ {.{.{.",
"{.O j h.V.b.h.g.g.g.U h.N.g.$ $ $ % ; : t L k O.2.z.v.b.x.1.K I P C r = t V J N B B B h.+ {.{.{.",
"{.+ k L l g.Z.!.H.H.H.b.M ; $ $ $ % * ; V l K l.H.C.G g d k b d s l G b 4 9 H V N N N h.+ {.{.{.",
"{.+ g L g g g j z h y ; ; % $ $ $ % ; r B S 1.G.F d +.u.Y.E.E.Y.p.3.f g D 9 u Z N N N h.+ {.{.{.",
"{.O g L g h g g g p y : ; % $ $ % % * h b O.c.s m 8.K.U.P.K.K.K.U.P.i.X.u C 4 v N N N g.+ {.{.{.",
"{.+ g L g g g g g p y r ; % $ $ $ % * i n z.9 o.p.K.s.s.J.J.s.s.J.s.K.J.! 4 C r N N N f.+ {.{.{.",
"{.+ a L h g h g p p y r ; % $ $ $ % * i K r e y.a.i.i.a.a.W.Q.a.i.i.i.i.s.e * k z N N f.+ {.{.{.",
"{.O a L g h h g p p y r ; * $ $ % % * k v 3 %.u.u.u.u.u.Y.].].W.u.u.u.u.u.r.< d z V N d.+ {.{.{.",
"{.+ p L g g g g g p y r ; * $ $ $ % * C = w t.t.t.t.t.t.L.].].E.t.t.t.t.t.u.Q # b n.A d.O {.{.{.",
"{.+ i U g g g g p p y r ; % $ $ $ % * b 3 { e.e.e.e.r.r.6.I.R.r.e.r.e.e.e.r.$.> d G v.d.+ {.{.{.",
"{.+ i L g g g g g p i : : % $ $ % % * d 2 @.6.w.w.6.6.U.E.E.E.T.6.w.w.w.6.6.e.8 r l M.U + {.{.{.",
"{.+ i L g g j g a i i : : ; $ $ $ % * r 5 @.4.4.4.4.$.'.].].].(.4.4.4.4.4.4.4.w & V c.U + {.{.{.",
"{.+ t L g g g g g p y : ; ; $ $ $ % * * 5 @.@.@.#.#.#.w.E.].].(.0.5.5.5.$.4.$.Y $ c.H U + {.{.{.",
"{.+ t J g g h g a i y : ; $ $ $ % % * 4 5  . . .| #.0.,.Y.].].(.9.0.5. ...( E 7 = G B L O {.{.{.",
"{.+ t L g g g h g i y t ; ; $ $ $ % * 9 , W ( ) [ [ ,.,.a.'.'.U.-.] / ^ ~ E E 6 * B B L + {.{.{.",
"{.O t L g g h g a p y : ; $ : x M B V k > T ~ ~ / _ ] &.q.`.`.i.' ] ` / ^ W R 1 d H J j + {.{.{.",
"{.O $ I x g g h g i y : ; i x $ + + O $ # Y ~ ^ _ _ &.=.q.`.`.i.=.&.' _ ^ ~ R 3 $ @ + + {.{.{.{.",
"{.{.+ t H L A M x j j z x z $ O {.{.{.{.= 1 ~ / _ &.*.,.J.`.`.U.0.&.' ' / / 5 @   {.{.{.{.{.{.{.",
"{.{.{.O + % g x N x j p $ + O {.{.{.{.{.o # 7 _ ` &.=.Q.[.[.`.`.).&.&.' _ Y 3 o {.{.{.{.{.{.{.{.",
"{.{.{.{.{.O O O O + O O O {.{.{.{.{.{.{.{.- 3 Y ' &.=.-.;.9.>.>.-.=.*.' R > - {.{.{.{.{.{.{.{.{.",
"{.{.{.{.{.{.{.{.{.{.{.{.{.{.{.{.{.{.{.{.{.{.@ 3 q _ =.;.:.<.<.:.:.=.' Y > @ {.{.{.{.{.{.{.{.{.{.",
"{.{.{.{.{.{.{.{.{.{.{.{.{.{.{.{.{.{.{.{.{.{.{.@ # 8 T _ *.;.;.=.` E 8 # @ {.{.{.{.{.{.{.{.{.{.{.",
"{.{.{.{.{.{.{.{.{.{.{.{.{.{.{.{.{.{.{.{.{.{.{.{.{.@ @ < 0 q q 0 < # @ {.{.{.{.{.{.{.{.{.{.{.{.{.",
"{.{.{.{.{.{.{.{.{.{.{.{.{.{.{.{.{.{.{.{.{.{.{.{.{.{.{.{.@ @ @ # {.{.{.{.{.{.{.{.{.{.{.{.{.{.{.{.",
"{.{.{.{.{.{.{.{.{.{.{.{.{.{.{.{.{.{.{.{.{.{.{.{.{.{.{.{.{.{.{.{.{.{.{.{.{.{.{.{.{.{.{.{.{.{.{.{.",
"{.{.{.{.{.{.{.{.{.{.{.{.{.{.{.{.{.{.{.{.{.{.{.{.{.{.{.{.{.{.{.{.{.{.{.{.{.{.{.{.{.{.{.{.{.{.{.{."
};
