/* XPM */
static char *clean_ssd[] = {
/* columns rows colors chars-per-pixel */
"48 48 178 2 ",
"   c black",
".  c gray7",
"X  c gray20",
"o  c #3A3A3A",
"O  c #257625",
"+  c #73443B",
"@  c #434343",
"#  c #4D4D4D",
"$  c #535353",
"%  c #595959",
"&  c #5D7E5D",
"*  c #606060",
"=  c #6B6B6B",
"-  c #777777",
";  c #7D7D7D",
":  c #BB1111",
">  c #873B37",
",  c #9D3D3C",
"<  c #A7352C",
"1  c #BA3E2F",
"2  c #A83730",
"3  c #A93C36",
"4  c #B43D31",
"5  c #C01717",
"6  c #C21818",
"7  c #CD1D19",
"8  c #D21D1B",
"9  c #E51A1A",
"0  c #F11818",
"q  c #D42824",
"w  c #C53329",
"e  c #D13027",
"r  c #C03A39",
"t  c #D73F30",
"y  c #D83D31",
"u  c #E12E28",
"i  c #E43935",
"p  c #89423E",
"a  c #AD423F",
"s  c #B84538",
"d  c #C24537",
"f  c #D54438",
"g  c #934941",
"h  c #995847",
"j  c #A74B46",
"k  c #B54A48",
"l  c #AF5646",
"z  c #B55544",
"x  c #A45252",
"c  c #B15351",
"v  c #97774D",
"b  c #906053",
"n  c #8C7555",
"m  c #937552",
"M  c #9A7B52",
"N  c #907A5C",
"B  c #A7605E",
"V  c #A56550",
"C  c #B96851",
"Z  c #A97456",
"A  c #966862",
"S  c #B76B6B",
"D  c #B77D7D",
"F  c #C44445",
"G  c #C34848",
"H  c #C55649",
"J  c #D75241",
"K  c #CA5151",
"L  c #C85850",
"P  c #C65951",
"I  c #D15F5B",
"U  c #CD634D",
"Y  c #CC635E",
"T  c #CF6A62",
"R  c #D46767",
"E  c #D76A69",
"W  c #D76B69",
"Q  c #D1746B",
"!  c #C37676",
"~  c #D37A72",
"^  c #E87D7D",
"/  c #9E825E",
"(  c #A48255",
")  c #AC8455",
"_  c #A5835A",
"`  c #AA855B",
"'  c #AD8A5B",
"]  c #AA895A",
"[  c #B38A5C",
"{  c #B2855C",
"}  c #B8925F",
"|  c #9A866B",
" . c #A18464",
".. c #A58C6C",
"X. c #A3856A",
"o. c #AA926E",
"O. c #B69263",
"+. c #B3956D",
"@. c #BC9969",
"#. c #A88774",
"$. c #AA9576",
"%. c #B29771",
"&. c #B49A73",
"*. c #BD9E75",
"=. c #B39B78",
"-. c #BEA27C",
";. c #C29364",
":. c #C29A66",
">. c #C69F6A",
",. c #D88379",
"<. c #D2857E",
"1. c #CEA46C",
"2. c #D1A76B",
"3. c #C5A67D",
"4. c #848484",
"5. c #8C8C8C",
"6. c #939393",
"7. c #9C9C9C",
"8. c #BA8786",
"9. c #AD9B80",
"0. c #B19880",
"q. c #B79F9F",
"w. c #BC9494",
"e. c #BDA88A",
"r. c #BAA993",
"t. c #BAAD9E",
"y. c #BAA79A",
"u. c #A5A5A5",
"i. c #ACACAC",
"p. c #BDB6AD",
"a. c #B4B4B4",
"s. c #BCBCBC",
"d. c #C78A8A",
"f. c #C79687",
"g. c #CB9393",
"h. c #D59999",
"j. c #E98583",
"k. c #E78B87",
"l. c #E8948F",
"z. c #C5AC85",
"x. c #C8B18E",
"c. c #C0AD95",
"v. c #C2B39F",
"b. c #C3A5A5",
"n. c #CCADAD",
"m. c #C6AEAE",
"M. c #CDBFA7",
"N. c #C3BAAE",
"B. c #C3B6A4",
"V. c #C4BEB5",
"C. c #C2BEBB",
"Z. c #D4B9B9",
"A. c #CFC2AB",
"S. c #D2C5AE",
"D. c #C5C2BC",
"F. c #CAC4BC",
"G. c #D7C9B3",
"H. c #DBD0BB",
"J. c #C3C3C3",
"K. c #CBC5C3",
"L. c #CBC9C7",
"P. c #CCCCCC",
"I. c #D4C0C0",
"U. c #D5CCC5",
"Y. c #D4D1CD",
"T. c #DBD5CD",
"R. c #D9D5CB",
"E. c #D4D4D4",
"W. c #D9D5D4",
"Q. c #D8D8D7",
"!. c #DADADA",
"~. c #E4E4E4",
"^. c #EBEBEA",
"/. c #E9E9E7",
"(. c #F0F0EF",
"). c #F4F4F4",
"_. c #FCFCFC",
"`. c None",
/* pixels */
"`.`.`.`.`.`.`.`.`.`.`.`.`.`.`.`.`.`.`.`.`.`.`.`.`.`.`.`.`.`.`.`.`.`.`.`.`.`.`.`.`.`.`.`.`.`.`.`.",
"`.`.`.`.`.`.`.`.`.`.`.`.`.`.`.`.`.`.`.`.`.`.`.`.`.`.`.`.`.`.`.`.`.`.`.`.`.`.`.`.`.`.`.`.`.`.`.`.",
"`.`.`.`.`.`.u.7.4.i.s.J.P.E.L.P.P.P.P.P.P.P.P.P.P.L.s.J.J.s.s.s.a.s.s.a.s.s.i.4.7.u.`.`.`.`.`.`.",
"`.`.`.`.`.`.a.5.J.a.s.^._.).(.(.^.^.^.^.^.~.~./.(.^.J.L.J.J.J.J.J.J.s.J.s.s.s.5.5.a.`.`.`.`.`.`.",
"`.`.`.`.`.`.s.s.J.s.J.E.!.!.!.!.!.!.Q.E.Q.Q.E.!.Q.Q.P.a.a.a.a.a.a.i.i.a.J.J.s.s.s.s.`.`.`.`.`.`.",
"`.`.`.`.`.= s.J.J.i.i.i.a.s.s.s.D.J.J.J.L.L.J.P.J.P.P.6.L.P.P.L.P.P.J.6.J.J.J.J.J.s.= `.`.`.`.`.",
"`.`.`.`.`.4.J.J.s.4.P.P.P.E.P.P.E.P.P.E.P.E.E.P.E.P.P.6.P.E.P.E.P.P.J.6.P.P.P.J.J.J.; `.`.`.`.`.",
"`.`.`.`.`.6.L.L.7.6.P.P.P.E.E.E.E.E.E.E.E.E.E.!._.!.a.a.E.P.E.E.E.P.P.5.P.P.P.P.P.J.6.`.`.`.`.`.",
"`.`.`.`.`.u.P.P.6.u.E.E.E.E.E.E.E.E.E.E.Q.E./._.(.P.u.Q.E.E.E.E.E.E.E.5.P.P.P.P.P.L.u.`.`.`.`.`.",
"`.`.`.`.`.a.E.P.6.s.E.E.E.E.E.Q.Q.!.Q.Q.~._._.~.E.a.Q.!.Q.Q.Q.Q.E.E.E.6.P.E.E.P.E.E.i.`.`.`.`.`.",
"`.`.`.`.`.s.E.E.6.J.E.E.Q.Q.Q.!.!.Q.~._._.).!.L.J.Q.!.!.!.!.Q.!.!.Q.Q.6.P.E.E.E.P.E.s.`.`.`.`.`.",
"`.`.`.`.`.J.E.E.7.E.Q.Q.Q.!.!.!.^._._.).!.P.L.!.!.Q.U.P.!.!.!.!.!.!.Q.u.P.!.Q.E.E.E.L.`.`.`.`.`.",
"`.`.`.`.`.P.Q.Q.u.E.!.!.!.^._._._.(.E.P.E.!.!.!.!.T.e.H.!.!.!.!.!.!.!.i.P.Q.Q.Q.E.E.P.`.`.`.`.`.",
"`.`.`.`.`.E.Q.Q.s.P.)._._._.).~.E.P.!.!.!.~.!.!.!.S.x.W.!.!.!.!.!.!.!.s.J.!.!.Q.Q.Q.E.`.`.`.`.`.",
"`.`.`.`.`.E.!.Q.!.!.(.(.~.E.P.E.!.~.!.~.!.!.!.!.T.%.G.!.!.~.~.!.!.!.!.J.P.!.!.!.!.Q.E.`.`.`.`.`.",
"`.`.`.`.`.Q.Q.E.!.!.!.!.P.E.!.!.!.!.!.!.!.!.!.Q.A.-.Q.!.!.!.!.!.~.!.!.P.P.!.!.!.E.Q.Q.`.`.`.`.`.",
"`.`.`.`.4.!.5.4.P.~.!.J.E.!.!.!.!.!.!.!.!.!.Q.R...S.!.!.!.!.!.!.!.!.!.!.J.!.!.P.- 5.Q.4.`.`.`.`.",
"`.`.`.`.7.!.s.a.!.!.s.Q.!.!.!.!.!.!.!.!.!.!.Q.A.-.g.n.!.!.!.!.!.!.Z.h.I.Q.C.!.~.a.s.!.7.`.`.`.`.",
"`.`.`.`.i.!.!.!.!.J.P.!.!.!.!.Q.Q.!.!.!.Q.Q.Y.$.f.k.T ! W.!.W.!.g.L l.P g.P.J.!.!.~.!.i.`.`.`.`.",
"`.`.`.`.a.~.!.!.E.a.!.!.!.!.!.!.Q.Q.!.E.Q.D.#.X.<.,.j.,.k I.U.c Q j.^ k.Q ! a.E.!.!.!.a.`.`.`.`.",
"`.`.`.`.s.!.!.!.a.P.Q.Q.Q.Q.Q.!.Q.Q.Q.E.v.=...X.z R R R ~ g > ~ E R W ,.k I.P.a.!.!.!.s.`.`.`.`.",
"`.`.`.`.J.!.!.!.7.Q.!.Q.Q.Q.Q.E.Q.E.K.=.e.=.' / #.4 K K K I Y K R W k S E.!.!.7.Q.!.!.J.`.`.`.`.",
"`.`.`.`.P.!.!.P.u.!.Q.Q.Q.E.Q.E.E.P.| 3.+.&.) ` G.n.3 H r F G G F 2 b.E.!.E.!.u.P.!.!.L.`.`.`.`.",
"`.`.`.`.P.!.!.a.i.E.!.E.E.E.E.E.P.| | $.o._ ]  .E.g.< d : : 6 6 w 2 D E.!.E.E.i.a.!.!.E.`.`.`.`.",
"`.`.`.`.E.!.Q.s.a.E.E.E.E.E.Y.P.#.M +._ N m n $.B 3 e 8 7 1 s 8 8 q 1 x I.E.!.a.a.Q.Q.E.`.`.`.`.",
"`.`.`.`.E.Q.E.J.i.E.E.E.E.P.K.+.m O._ _ v ( m Z H y f y l + + h q 9 9 J j m.E.i.J.Q.Q.E.`.`.`.`.",
"`.`.`.`.Q.E.E.E.i.E.E.E.P.V.*.v ' ` ' M { } _ Z U f J h b N.V.A p i 0 i a 8.E.i.E.E.Q.Q.`.`.`.`.",
"`.`.`.5.Q.E.E.E.a.L.P.L.t.3.( _ :.{ } ' [ [ @.=.V C h #.N.V.K.K.q.> I , b.E.P.a.E.E.Q.!.5.`.`.`.",
"`.`.`.7.E.E.E.E.L.J.P.J.D.z.[ 1.;.;.' 2.) >.>.r.r.X.y.s.J.K.L.L.P.s.d.J.P.P.J.P.E.E.E.Q.7.`.`.`.",
"`.`.`.i.Q.E.E.P.E.P.E.P.L.K.V.B.e.z.@.:.[ ;.*.t.p.s.J.J.J.J.L.J.P.P.P.P.P.E.P.E.E.E.E.E.u.`.`.`.",
"`.`.`.a.E.E.E.P.P.P.Q.~.P.J.J.J.J.D.D.p.r.c.t.C.C.s.s.J.s.J.J.J.J.J.P.P.~.E.P.P.P.E.E.E.a.`.`.`.",
"`.`.`.s.P.E.E.P.P.P.L.~.^.Y.J.J.s.J.s.s.s.s.s.s.s.s.J.s.s.J.s.J.J.J.E.^.~.P.P.P.E.E.E.E.s.`.`.`.",
"`.`.`.J.P.E.P.P.P.P.P.J.^._.~.J.s.s.s.s.s.s.s.s.a.s.s.s.s.s.J.s.J.~._./.P.J.P.P.P.P.E.E.s.`.`.`.",
"`.`.`.J.E.P.P.P.P.J.J.J.J.Q.)._.~.L.s.a.a.a.a.a.a.s.a.a.s.a.L.~._._.!.J.P.J.P.P.P.P.P.E.J.`.`.`.",
"`.`.`.J.E.P.P.P.J.J.J.J.J.s.J.Q.)._._.^.!.E.L.J.J.L.E.Q./._._.).E.J.s.J.J.J.P.P.P.P.P.P.P.`.`.`.",
"`.`.`.L.s.5.u.L.P.J.J.J.s.s.s.a.a.J.Q.^.)._._._._._._.).^.Q.J.a.s.s.s.J.J.J.J.J.P.i.5.J.P.`.`.`.",
"`.`.`.P.i.P.5.L.J.J.J.s.s.s.a.a.a.a.i.a.i.i.a.s.s.a.a.i.a.a.a.a.a.s.s.s.J.J.J.P.P.5.s.i.P.`.`.`.",
"`.`.`.P.E.a.E.J.J.J.s.s.s.s.a.a.a.a.i.i.i.i.i.i.i.i.i.i.i.i.a.a.a.a.s.s.s.s.J.J.J.E.a.E.P.`.`.`.",
"`.`.% s.s.s.a.s.s.a.a.a.a.a.a.i.i.i.i.i.i.i.i.i.i.i.i.i.i.i.a.i.a.i.a.a.a.s.a.s.s.s.s.s.J.% `.`.",
"`.`.X # % % % % = o % % % % % % % % % % % % = $ % = $ % % % % % % % % % % % % % % % $ % # X `.`.",
"`.`.o # # $ # # * . # # # # # # # # $ # o # = o $ = o # # $ # # # # # # # $ # # # # # # # o `.`.",
"`.`.$ - ; ; ; ; 4.. * * * * * * * * * * @ % - @ % - @ ; ; ; ; ; ; ; ; 4.; ; ; O O ; ; ; - $ `.`.",
"`.`.# = - - - - ;   . X # * = - - - - - @ % - @ % - @ - - - - - - - - - - - - & & - - - = $ `.`.",
"`.`.`.# % % % % * o o @ @ @ # # # $ $ % $ $ * # $ * # % % % % % % % % $ % % % % % % % % # `.`.`.",
"`.`.`.`.`.`.`.`.`.`.`.`.`.`.`.`.`.`.`.`.`.`.`.`.`.`.`.`.`.`.`.`.`.`.`.`.`.`.`.`.`.`.`.`.`.`.`.`.",
"`.`.`.`.`.`.`.`.`.`.`.`.`.`.`.`.`.`.`.`.`.`.`.`.`.`.`.`.`.`.`.`.`.`.`.`.`.`.`.`.`.`.`.`.`.`.`.`.",
"`.`.`.`.`.`.`.`.`.`.`.`.`.`.`.`.`.`.`.`.`.`.`.`.`.`.`.`.`.`.`.`.`.`.`.`.`.`.`.`.`.`.`.`.`.`.`.`.",
"`.`.`.`.`.`.`.`.`.`.`.`.`.`.`.`.`.`.`.`.`.`.`.`.`.`.`.`.`.`.`.`.`.`.`.`.`.`.`.`.`.`.`.`.`.`.`.`."
};
