/* XPM */
static char *dummy[]={
"48 48 473 2",
"Qt c None",
".e c #000000",
"#r c #000000",
".# c #020202",
"#X c #000000",
"#W c #000000",
"#d c #000000",
"#e c #030303",
"aG c #000000",
".W c #010101",
"fw c #010101",
"cc c #010101",
"aH c #010101",
"#F c #020202",
".s c #030303",
"#G c #080808",
"ag c #030303",
".9 c #030303",
".b c #090909",
"#Y c #030202",
"fv c #030303",
"ff c #040404",
"#s c #070705",
"af c #040404",
".f c #040404",
"fg c #070707",
"#V c #050505",
".d c #131313",
".I c #050505",
"#l c #090909",
"#f c #161616",
"cv c #040404",
".c c #101010",
"f# c #050505",
"fu c #050505",
"fq c #000000",
"fr c #010101",
"fs c #020202",
"fm c #030303",
"fl c #040404",
"fk c #050505",
"ft c #060606",
"fj c #070707",
"fi c #0a0a0a",
"fh c #0b0b0b",
"fp c #000000",
"fo c #010101",
"fn c #020202",
"a6 c #070707",
".a c #171717",
"#t c #0a0907",
"#g c #1f1e1e",
"e7 c #111111",
".H c #0a0a0a",
"#q c #0a0a0a",
"cN c #0c0c0c",
"ae c #0a0a0a",
"a7 c #0c0b0a",
".X c #0c0c0c",
"#h c #262525",
".r c #0d0d0d",
"#A c #0d0d0d",
"#i c #222222",
"#c c #0b0b0b",
".g c #0e0e0e",
"#k c #1d1d1d",
"#j c #202020",
"#z c #100f0f",
".t c #0e0e0e",
"bw c #111111",
"cZ c #1a1a1a",
".q c #111111",
"#Z c #0a090a",
"ad c #101010",
"ah c #141211",
".h c #191919",
"bx c #141211",
"fe c #131313",
"e5 c #202020",
"fa c #202020",
"#m c #131313",
"db c #292929",
"bT c #171413",
"cd c #181616",
"cw c #222222",
"eP c #232323",
"dn c #242424",
"aF c #151515",
"e6 c #171717",
"bS c #1f1f1f",
"#. c #121212",
".n c #161616",
"dz c #282828",
".k c #171717",
".m c #181818",
"dL c #282828",
"eG c #292929",
"dm c #353535",
"#U c #181818",
"dX c #292929",
"el c #292929",
".l c #171717",
"ea c #292929",
"ac c #141414",
"ai c #1c1918",
".j c #1d1d1d",
"aI c #1c1918",
"#u c #414040",
".o c #222222",
"dy c #404040",
".p c #2f2f2f",
"#E c #1c1c1c",
"#0 c #0e0d0e",
"dK c #494949",
"e4 c #424242",
"fd c #1b1b1b",
"dW c #4b4b4b",
"e2 c #5c5c5c",
".V c #1a1a1a",
"ek c #494949",
"e# c #4b4b4b",
"e0 c #5b5b5b",
"#Q c #1e1e1d",
"eF c #424242",
"eW c #454545",
"ew c #464646",
"eU c #363636",
"eO c #3a3a3a",
"eK c #3e3e3e",
"cb c #303030",
"f. c #1d1d1d",
".i c #303030",
".G c #202020",
"ab c #191919",
"fc c #1e1e1e",
".u c #252525",
"#H c #323124",
"fb c #323232",
"aj c #1a1717",
"aE c #191919",
".J c #1b1b1b",
"#I c #211f11",
"cu c #3d3d3d",
"#v c #444444",
"#R c #1e1e1e",
"#p c #191919",
"#B c #1e1e1e",
"a8 c #221e1d",
"e8 c #333333",
"#J c #3c3c3a",
"cG c #000000",
"cO c #010101",
"dh c #010102",
"cT c #020202",
"cU c #030303",
"cH c #030304",
"cx c #040404",
"cF c #040405",
"cy c #050505",
"be c #060606",
"aR c #060809",
"dc c #070707",
"dF c #070708",
"cV c #07070a",
"bq c #070711",
"c7 c #080808",
"bp c #080811",
"bo c #080812",
"aq c #090909",
"bK c #090912",
"bM c #090a12",
"c8 c #0a0a0a",
"cS c #0a0a0d",
"bJ c #0a0a12",
"bL c #0a0a13",
"c9 c #0b0b0b",
"dE c #0b0b0c",
"b5 c #0b0b13",
"bD c #0c0c0c",
"dQ c #0c0c0d",
"dt c #0c0c0e",
"cI c #0c0c10",
"cn c #0c0c11",
"cm c #0c0c12",
"cj c #0c0c13",
"b6 c #0c0c14",
"b7 c #0c0c15",
"di c #0d0d0d",
"cE c #0d0d12",
"co c #0d0d14",
"#a c #0e0e0e",
"c6 c #0e0e11",
"cl c #0e0e15",
"b4 c #0e0e16",
"ak c #0f0e0f",
"#b c #0f0f0f",
"ck c #0f0f16",
"bN c #0f0f17",
"am c #100f0f",
"#D c #101010",
"ds c #101013",
"br c #101018",
"#1 c #111010",
"#o c #111111",
"cQ c #111117",
"cD c #111118",
"bn c #12111a",
"## c #121212",
"d5 c #121213",
"c4 c #121217",
"cp c #121218",
"bI c #121219",
"aD c #131313",
"d. c #131318",
"ci c #131319",
"al c #141313",
".4 c #141414",
"cW c #14141a",
".2 c #151515",
"dj c #151519",
"dk c #15151a",
"cR c #15151b",
"aQ c #161514",
".1 c #161616",
"d# c #16161b",
"cJ c #16161d",
"bf c #171412",
".6 c #171717",
"dg c #17171c",
"c5 c #17171d",
"#2 c #181614",
"ap c #181716",
"#n c #181818",
"dC c #18181b",
"dG c #18181c",
"c3 c #18181d",
"bC c #191818",
".3 c #191919",
"ee c #19191a",
"dw c #191a1a",
"an c #1a1717",
"aM c #1a1919",
".Y c #1a1a1a",
"dS c #1a1a1d",
"df c #1a1a1f",
"aL c #1b1919",
"b. c #1b1a1a",
"au c #1b1b1b",
"dq c #1b1b1f",
"du c #1b1b20",
"#C c #1c1c1c",
"dO c #1c1c1f",
"dr c #1c1c20",
"#7 c #1c1d1d",
"#5 c #1d1b1b",
"b# c #1d1b1c",
"aN c #1d1c1c",
"aC c #1d1d1d",
"cX c #1d1d22",
"#6 c #1d1e1e",
"aK c #1e1b1b",
"aO c #1e1d1d",
"aa c #1e1e1d",
".C c #1e1e1e",
"dD c #1e1e22",
"a9 c #1f1c1b",
"aP c #1f1d1d",
"#S c #1f1e1e",
".w c #1f1f1f",
"dI c #1f1f20",
"d8 c #1f1f21",
".5 c #202020",
"dH c #202023",
"bY c #202120",
"ao c #211d1c",
"#3 c #211f1e",
"ba c #212120",
"#8 c #212121",
".0 c #212122",
"dR c #212124",
"aJ c #221e1d",
"by c #221e1e",
"#4 c #221f1f",
"bc c #222020",
"dv c #222125",
"#9 c #222222",
".8 c #222223",
"dP c #222225",
"bh c #222323",
"bU c #23201f",
"bd c #232221",
"a1 c #232227",
"a# c #232323",
"dB c #232326",
"ej c #232425",
"bv c #242424",
".7 c #242425",
"dN c #242426",
"ev c #242525",
"bz c #252222",
"bX c #252424",
"cL c #252425",
"dp c #252428",
"#P c #252524",
"#y c #252525",
"bm c #252529",
"do c #262526",
"dl c #262528",
"a. c #262626",
"d2 c #262628",
"d6 c #262629",
"at c #27201d",
"dd c #272627",
"#O c #272726",
".U c #272727",
"d7 c #272729",
".Z c #272827",
"#x c #282727",
"cY c #282728",
"aW c #282828",
"de c #28282a",
"d0 c #292829",
"cC c #29282d",
"#N c #292928",
"a5 c #292929",
".v c #292a2b",
"bA c #2a2727",
"e9 c #2a292a",
"da c #2a292b",
"aB c #2a2a2a",
"c2 c #2b2a2b",
"av c #2b2b2b",
"cK c #2b2b2c",
"d4 c #2b2b2e",
"bg c #2c1f18",
"bb c #2c2b2b",
"dT c #2c2b2c",
"#T c #2c2c2c",
"dx c #2c2c2d",
"eh c #2c2c2e",
"bV c #2d2b2a",
"aw c #2d2d2d",
"d3 c #2d2d2f",
".F c #2d2e2e",
"b0 c #2e2d2d",
"eu c #2e2d2e",
"#M c #2e2e2e",
".K c #2e2f2f",
"bZ c #2f2e2e",
"d1 c #2f2e30",
".x c #2f2f2f",
"e1 c #302f30",
"aA c #303030",
"d9 c #303132",
"ey c #313031",
".L c #313131",
"ec c #313133",
"bj c #323232",
"ef c #323234",
"cP c #323235",
".T c #323334",
"bB c #333131",
"#w c #333232",
"eZ c #333233",
"b8 c #333235",
"bu c #333333",
"eg c #333336",
"e. c #333434",
"e3 c #343334",
"aZ c #343337",
"#L c #343434",
"ei c #343435",
"aU c #35251b",
"bW c #353433",
"ax c #353435",
"bO c #353438",
"ce c #353535",
"dV c #353636",
"bF c #363536",
"bi c #363636",
"ed c #363637",
"dU c #363738",
"eE c #373637",
"eb c #373638",
"eT c #373736",
"az c #373737",
"er c #373738",
"a0 c #37373c",
"cr c #383738",
"c# c #383838",
"en c #393839",
"a2 c #39383c",
"c0 c #393939",
".Q c #3a3a3a",
"eB c #3a3a3b",
"eI c #3b3b3a",
"bt c #3b3b3b",
"et c #3c3b3c",
"#K c #3c3c3b",
"cz c #3c3c3c",
"es c #3c3c3d",
"bE c #3d3d3d",
"ep c #3d3d3e",
"b3 c #3d3d40",
"bR c #3e3e3e",
"eo c #3e3e3f",
"aV c #3f3f3f",
"eq c #3f3f40",
"cs c #404040",
"c1 c #414141",
"eC c #414142",
"ca c #424242",
"ay c #434343",
"ez c #434344",
"bQ c #444444",
"dJ c #444546",
"bs c #454445",
"cM c #454545",
"eN c #464546",
"dZ c #464646",
"cq c #474649",
"dA c #474747",
"eM c #484848",
"eA c #484849",
"dM c #494949",
"eH c #4a494a",
"ex c #4a4a4a",
"bH c #4a4a4c",
"dY c #4b4b4b",
"ch c #4c4b4e",
"ct c #4c4c4c",
"eD c #4c4c4d",
"eJ c #4d4d4d",
"em c #4e4e4e",
"c. c #4f4f4f",
"eX c #505050",
"bk c #515151",
"ar c #522e1c",
"b1 c #525252",
".M c #535353",
"eR c #555555",
"a3 c #565557",
".S c #575757",
"cA c #585758",
"eL c #585858",
"cg c #595759",
"cB c #59585a",
".E c #595959",
".B c #5a5a5a",
"eS c #5b5b5b",
"bP c #5c5b5c",
"b2 c #5c5c5c",
"eV c #5d5d5d",
"aY c #5d5d5e",
"a4 c #5f5f5f",
"eQ c #605f60",
"aX c #606060",
"bl c #616161",
"bG c #626262",
"eY c #636363",
".z c #646464",
"cf c #656465",
".y c #676767",
".N c #686868",
"b9 c #696869",
"as c #793a1c",
".A c #7b7b7b",
".R c #7d7d7d",
"aS c #7e381b",
".D c #7e7e7e",
".O c #7f7f7f",
".P c #828282",
"aT c #aa431b",
"QtQtQtQtQtQtQtQtQtQtQtQtQtQtQtQtQtQtQtQtQtQtQtQtQtQtQtQtQtQtQtQtQtQtQtQtQtQtQtQtQtQtQtQtQtQtQtQt",
"QtQtQtQtQtQtQtQtQtQtQtQtQtQtQtQtQtQtQtQtQtQtQtQtQtQtQtQtQtQtQtQtQtQtQtQtQtQtQtQtQtQtQtQtQtQtQtQt",
"QtQtQtQtQtQtQtQtQtQtQtQtQtQtQtQtQtQtQtQtQtQtQtQtQtQtQtQtQtQtQtQtQtQtQtQtQtQtQtQtQtQtQtQtQtQtQtQt",
"QtQtQtQtQtQtQtQtQtQtQtQtQtQtQtQtQtQtQtQtQtQtQtQtQtQtQtQtQtQtQtQtQtQtQtQtQtQtQtQtQtQtQtQtQtQtQtQt",
"QtQtQtQtQtQtQtQtQtQtQtQtQtQtQtQtQtQtQtQtQtQtQtQtQtQtQtQtQtQtQtQtQtQtQtQtQtQtQtQtQtQtQtQtQtQtQtQt",
"QtQtQtQtQtQtQtQtQtQtQtQtQtQtQtQtQtQtQtQtQtQtQtQt.#.a.bQtQtQtQt.c.dQtQtQtQtQtQtQtQtQtQtQtQtQtQtQt",
"QtQtQtQtQtQtQtQtQtQtQtQtQtQtQtQtQtQtQtQtQt.e.f.g.h.i.j.k.l.m.n.o.p.q.r.sQtQtQtQtQtQtQtQtQtQtQtQt",
"QtQtQtQtQtQtQtQtQtQtQtQtQtQtQtQtQtQtQtQtQt.t.u.v.w.x.y.z.A.B.C.D.E.w.F.G.HQtQtQtQtQtQtQtQtQtQtQt",
"QtQtQtQtQtQtQtQtQtQtQtQtQtQtQtQtQtQtQtQt.I.J.x.K.C.L.M.N.O.P.Q.R.S.w.T.U.V.WQtQtQtQtQtQtQtQtQtQt",
"QtQtQtQtQtQtQtQtQtQtQtQtQtQtQtQtQtQtQtQt.X.Y.Z.0.1.2.3.4.5.6.3.6.1.1.7.8.J.fQtQtQtQtQtQtQtQtQtQt",
"QtQtQtQtQtQtQtQtQtQtQtQtQtQtQtQtQtQtQt.9#.###a#a#b#b#b#b#b#b#b#b#b#b#a#a.2#c#dQtQtQtQtQtQtQtQtQt",
"QtQtQtQtQtQtQtQtQtQt#e#f#g#h#i#j#k#l.e#m#n#b#b#b#b#b#b#b#b#b#b#b#b#b#b#b#o#p#qQtQtQtQtQtQtQtQtQt",
"QtQtQtQtQtQt#r#s#t#u#v.Q#w.L.x#x#y#z#A#B#C#a#a#b#b#b#b#b#b#b#b#b#b#b#b#b#D.C#E#FQtQtQtQtQtQtQtQt",
"QtQtQtQtQtQt#G#H#I#J#K#L#w#M#N#O#P#Q#R.w#S#C.Y#n#n.6.6.1.1.1.1.1.1.6#n.3#C.w#T#U#V#WQtQtQtQtQtQt",
"QtQtQt#X#Y#Z#0#1#2#3#4#5.Y#6#7.C.w.w#8.w.Y.w.w.w.C.w#9#y.U.Ua.a#.w.C.w.w#Caa#9#Tabacadaeaf#XQtQt",
"Qtagahaiajakalalamanaoapaqarasat.x.5#y.wau.C.wa#avawaxavay#LazaAa.aBa#.waCaC.C.L#9#n##aDaEaFaGQt",
"aHaIaJaoaKaLaMaNaOaPaJaQaRaSaTaUaVaWa#.w.w#8av#T.LaXaYaZa0a1a2a3a4aVaBaB#9.C.w#yaAa5.C.CaC.wa6Qt",
"a7a8aJa9b.b#a#babbbcbdaDbebfbgbhazbiaC.C#ybjbkblbmbnbobpbqbqbpbobra1bs.QaW#T.C.Cbtbubv.w.waBbwQt",
"bxaJaJaobybzbc#3bAbBbCaDbebD#oa5.CbE.C#TbFbGbHbIbJbpbKbLbLbLbLbKbpbMbNbObPbsbQaCbRbu#L.C.CaWbSQt",
"bTaobUbVbWbXbYbvbZb0auaDbebD#o.3awaWavb1b2b3b4bLb5b4b4b4b4b4b4b4b4b6bLb7b8b9c.bic##Lca#CaC.Ccbcc",
"cdbbbjcebtcea5aC.Y.CawawbebD#o.6#M.wcfcgchcicjckbrbrbrclcmcncobrbrbrbNb6cpcqcrbi#ycsctaC.w.Ccucv",
"cwbubu#L.x.5.3au.1bDcx#ycybD#o.6a#czcAcBcCclcDcicicEcFcGcGcGcGcHcIcicibIclcJcKcLaBczcMbv.w.CcscN",
"cwbububicz.Qbubj.5bDcO#acybD#o.6aC.QbFcPcQcpcRcRcScGcGcTcUcUcTcGcGcVcWcRcicQcXcYav.xce#T.w.wczcZ",
"cwbubuc0c1czbubj#CbDcOcTbebD#o.6.Uc2c2c3c4c5c3c6cGcOcyc7c8c9aqbecOcGcSc3c3d.d#daa.aB.U#M.w.w.Ldb",
"cwbubu.QaybRbuaB.YbDcOcGdcbD#o.6awddded#d#dfdgdhcObebD#aaDaD#odidccOcGdjdfdgdkdlbvaw.5#y.C.CaAdm",
"dnbububtcMcs#LaW.YbDcOcGdcbD#o.1budodpd#dqdrdscOcxc9#o.2#n.4.2#Dc8cxcOdtdrdudkdv.U#TaCdw.Fdx.Ldy",
"dzbubuczdAcaceaW.YbDcOcGdcbD#o.6buaWdBdCdDdDdEaqcy#a.4##cxcT##.1#bdcaqdFdDdDdGdHaBavdI.3bEdJcedK",
"dLbububEdMbQceaW.YbDcOcGdcbD#o.3bja5dNdOdBdPdQ##be#a.1c7cGcGcx.2#Ddc#oc7dRdRdSdRdTaB#8.YaCdUdVdW",
"dXbububRdYdZbiaW.YbDcOcGdcbD#o#nbjd0d1d2d3d4d5#CcybD###DcGcGdiaD#adc.3#ad6d7d8d2c2aB.5.Y#nd9e.e#",
"eabububRctdAazaW.YbDcOcGdcbD#o.1buddebeceded.0#Cc8c8#oaD###D.4#oc9c7.Ceeefegeheid0#T#7.6.2ejawek",
"elbubuaVemdMc#aW.YbDcOcGdcbD#o.1aAa.eneoepeqer#o#Cbec9#b#D#o#Dc9be#n##d3esepepetcLeuev#y.YaCaBew",
"dXbubuaVc.exc0aW.YbDcOcGdcbD#o.6aBa5eyctezeAezaW#o.1cyc7c9c9aqcyaD.2.YeBayeCeDeEcLawc0aB.w.waWeF",
"eGbubuaVbkdYc0aW.YbDcOcGbebD#o.6.5.xd0eHc.dYexay#8aq##diaqc7bD##c9aDaAeIcsdZeJava5#Tcs.C.w.w.UeK",
"eGbubuaVb1eJ.QaW.YbDcOcGbebD#o.6#CaA#MbseLeJexdZbEa5bDcxcycycUc8.C#T#M#LazeMeNeEaw#MbR.C.w.w#yeO",
"ePbubuaVb1eJ.QaW.YbDcOcGbebD#o.6#Ca#.LeQayeRcMaybRbiawaWa##9.U#TawawaB#ybibEeSbuaWeTav.w.w.wbveU",
"cwbubuaVbkeJ.QaW.YbDcOcGbec9#o.6#C.wav.QeVbsctbEcebuawawawawawawava.a#aBbF.zeMaBaWbQ.C.w.w.wa.eW",
"cwbububReXeJ.QaW.YbDcOcGbec9#o.6#C.w.CawcseYeEc1bia5bv#y.U.U#ybv#9.U#MeZ.zdZava#a5#8.w.w.w.waBe0",
"cwbububEc.ct.QaW.YbDcOcGbec9#o.1auaCaC.CavaB.Ueyc#eZava5a.a.a5ave1bFdYctdTaB.5.5.w.C.w.w.w.waBe2",
"cwbububEeJdY.QaW.YbDcOcGbec8#a##.1#n.6.6#nbvavbvd0e1e3axaxaxax#Leye1eM.La5.w.w.w.w.w.w.w.w.w#ye4",
"e5bubuczdYex.QaW.YbDcOcGcybeaqbD#a#a#a#a#a#b.2a.aB#ybvdoaWaWddbv#ya5a5.5#Dau#C#C#C#C#C#C#C#CaCe6",
"e7e8bubtdMdM.QaW.YbDcOcGcxbec7c8bDbDbDbDdididibD#oaC#yaWaWaWe9aBa.aC.4aD.C.w.w.w.w.w.w.w.w.wf.f#",
"#Wfafbc0dZdZc0a5audicUcOcybedcc7c7dcbebedcaqc8bDbDbDdi#D.4.1.1.1.2.6.C.w.w.w.w.w.w.w#BfcfdfeffQt",
"Qt#rfgfhfhfhfhfifjfkflfmfnfnfnfofofpfqfqfqfrfrfsfsfsfmfmfmfmfkftftftftftftftftftftftfufvfwQtQtQt",
"QtQtQtQtQtQtQtQtQtQtQtQtQtQtQtQtQtQtQtQtQtQtQtQtQtQtQtQtQtQtQtQtQtQtQtQtQtQtQtQtQtQtQtQtQtQtQtQt",
"QtQtQtQtQtQtQtQtQtQtQtQtQtQtQtQtQtQtQtQtQtQtQtQtQtQtQtQtQtQtQtQtQtQtQtQtQtQtQtQtQtQtQtQtQtQtQtQt",
"QtQtQtQtQtQtQtQtQtQtQtQtQtQtQtQtQtQtQtQtQtQtQtQtQtQtQtQtQtQtQtQtQtQtQtQtQtQtQtQtQtQtQtQtQtQtQtQt",
"QtQtQtQtQtQtQtQtQtQtQtQtQtQtQtQtQtQtQtQtQtQtQtQtQtQtQtQtQtQtQtQtQtQtQtQtQtQtQtQtQtQtQtQtQtQtQtQt",
"QtQtQtQtQtQtQtQtQtQtQtQtQtQtQtQtQtQtQtQtQtQtQtQtQtQtQtQtQtQtQtQtQtQtQtQtQtQtQtQtQtQtQtQtQtQtQtQt"};
